<?xml version="1.0" encoding="UTF-8"?>
<!DOCTYPE svg PUBLIC "-//W3C//DTD SVG 1.1//EN" "http://www.w3.org/Graphics/SVG/1.1/DTD/svg11.dtd">
<!-- Creator: CorelDRAW 2019 (64-Bit) -->
<svg xmlns="http://www.w3.org/2000/svg" xml:space="preserve" width="16px" height="16px" version="1.1" style="shape-rendering:geometricPrecision; text-rendering:geometricPrecision; image-rendering:optimizeQuality; fill-rule:evenodd; clip-rule:evenodd"
viewBox="0 0 16 16"
 xmlns:xlink="http://www.w3.org/1999/xlink">
 <defs>
  <style type="text/css">
   <![CDATA[
    .fil0 {fill:black}
    .fil1 {fill:#49C8F5}
   ]]>
  </style>
 </defs>
 <g id="Capa_x0020_1">
  <metadata id="CorelCorpID_0Corel-Layer"/>
  <g id="_1876237139472">
   <path class="fil0" d="M2.04 7.34c-0.24,0.14 -0.53,0.23 -0.83,0.23 -0.9,0 -1.63,-0.73 -1.63,-1.63 0,-0.9 0.73,-1.63 1.63,-1.63 0.9,0 1.63,0.73 1.63,1.63 0,0.27 -0.07,0.52 -0.18,0.74 1.81,0.68 3.28,1.15 5.29,1.14 1.78,0 3.51,-0.52 5.12,-1.14 -0.11,-0.22 -0.17,-0.47 -0.17,-0.74 0,-0.9 0.73,-1.63 1.63,-1.63 0.9,0 1.63,0.73 1.63,1.63 0,0.9 -0.73,1.63 -1.63,1.63 -0.31,0 -0.59,-0.09 -0.84,-0.23 -1.93,0.88 -3.87,1.22 -4.99,1.28l2.42 3.69c0.17,-0.05 0.35,-0.09 0.53,-0.09 0.9,0 1.63,0.73 1.63,1.63 0,0.9 -0.73,1.63 -1.63,1.63 -0.9,0 -1.63,-0.73 -1.63,-1.63 0,-0.41 0.16,-0.8 0.42,-1.08l-2.48 -3.79 -2.47 3.79c0.26,0.28 0.42,0.67 0.42,1.08 0,0.9 -0.73,1.63 -1.63,1.63 -0.9,0 -1.63,-0.73 -1.63,-1.63 0,-0.9 0.73,-1.63 1.63,-1.63 0.19,0 0.37,0.04 0.53,0.09l2.41 -3.69c-1.37,-0.19 -2.91,-0.36 -5.18,-1.28zm4.27 7.06c0.52,0.14 1.05,0.21 1.65,0.21 0.62,0 1.14,-0.07 1.66,-0.21 0.14,0.39 0.24,0.55 0.44,0.81 -0.66,0.19 -1.37,0.29 -2.09,0.29 -0.72,0 -1.42,-0.1 -2.07,-0.29 0.18,-0.2 0.34,-0.47 0.41,-0.81zm6.66 -2.09c1.02,-1.17 1.62,-2.79 1.57,-4.41 0.31,0 0.57,-0.04 0.89,-0.13 0.07,1.94 -0.61,3.82 -1.92,5.27 -0.17,-0.37 -0.25,-0.49 -0.54,-0.73zm-11.58 -4.42c-0.04,1.47 0.51,3.15 1.58,4.42 -0.23,0.24 -0.39,0.43 -0.55,0.73 -1.3,-1.45 -1.98,-3.33 -1.91,-5.27 0.36,0.09 0.5,0.11 0.88,0.12zm6.58 -5.73c1.31,0 2.37,1.07 2.37,2.38 0,1.31 -1.06,2.37 -2.37,2.37 -1.31,0 -2.38,-1.06 -2.38,-2.37 0,-1.31 1.07,-2.38 2.38,-2.38zm0 -1.59c2.6,0 4.89,1.33 6.23,3.35 -0.36,0.08 -0.57,0.17 -0.86,0.35 -1.23,-1.75 -3.15,-2.81 -5.38,-2.8 -2.24,0.01 -4.16,1.04 -5.38,2.8 -0.28,-0.19 -0.43,-0.27 -0.84,-0.35 1.34,-2.02 3.63,-3.35 6.23,-3.35z"/>
   <path class="fil1" d="M7.97 2.96c0.87,0 1.57,0.71 1.57,1.58 0,0.87 -0.7,1.57 -1.57,1.57 -0.87,0 -1.58,-0.7 -1.58,-1.57 0,-0.87 0.71,-1.58 1.58,-1.58zm3.67 10.3c0.33,0 0.59,0.27 0.59,0.59 0,0.33 -0.26,0.59 -0.59,0.59 -0.32,0 -0.59,-0.26 -0.59,-0.59 0,-0.32 0.27,-0.59 0.59,-0.59zm-7.36 0c0.33,0 0.59,0.27 0.59,0.59 0,0.33 -0.26,0.59 -0.59,0.59 -0.33,0 -0.59,-0.26 -0.59,-0.59 0,-0.32 0.26,-0.59 0.59,-0.59zm10.26 -7.93c0.33,0 0.59,0.27 0.59,0.59 0,0.33 -0.26,0.59 -0.59,0.59 -0.32,0 -0.59,-0.26 -0.59,-0.59 0,-0.32 0.27,-0.59 0.59,-0.59zm-13.35 0c0.33,0 0.59,0.27 0.59,0.59 0,0.33 -0.26,0.59 -0.59,0.59 -0.33,0 -0.59,-0.26 -0.59,-0.59 0,-0.32 0.26,-0.59 0.59,-0.59z"/>
  </g>
 </g>
</svg>
