<?xml version="1.0" encoding="UTF-8"?>
<!DOCTYPE svg PUBLIC "-//W3C//DTD SVG 1.1//EN" "http://www.w3.org/Graphics/SVG/1.1/DTD/svg11.dtd">
<!-- Creator: CorelDRAW 2019 (64-Bit) -->
<svg xmlns="http://www.w3.org/2000/svg" xml:space="preserve" width="16px" height="16px" version="1.1" style="shape-rendering:geometricPrecision; text-rendering:geometricPrecision; image-rendering:optimizeQuality; fill-rule:evenodd; clip-rule:evenodd"
viewBox="0 0 16 16"
 xmlns:xlink="http://www.w3.org/1999/xlink">
 <defs>
  <style type="text/css">
   <![CDATA[
    .fil0 {fill:black}
    .fil1 {fill:#49C8F5}
   ]]>
  </style>
 </defs>
 <g id="Capa_x0020_1">
  <metadata id="CorelCorpID_0Corel-Layer"/>
  <g id="_1876283826672">
   <path class="fil0" d="M7.97 0.59c2.82,0 5.28,1.58 6.54,3.9 -0.18,0.04 -0.35,0.11 -0.5,0.2 -1.18,-2.12 -3.44,-3.56 -6.04,-3.56 -2.6,0 -4.87,1.44 -6.05,3.57 -0.15,-0.1 -0.32,-0.17 -0.5,-0.21 1.26,-2.32 3.72,-3.9 6.55,-3.9zm-6.89 6.97c-0.01,0.16 -0.02,0.32 -0.02,0.48 0,1.91 0.78,3.65 2.04,4.9 -0.14,0.12 -0.25,0.26 -0.34,0.42 -1.38,-1.35 -2.24,-3.24 -2.24,-5.32 0,-0.19 0.01,-0.38 0.02,-0.57 0.17,0.06 0.35,0.09 0.54,0.09zm4.54 6.98c0.74,0.26 1.52,0.41 2.35,0.41 0.82,0 1.61,-0.15 2.34,-0.41 0.05,0.17 0.13,0.34 0.24,0.49 -0.8,0.29 -1.67,0.46 -2.58,0.46 -0.91,0 -1.78,-0.17 -2.59,-0.46 0.11,-0.15 0.19,-0.32 0.24,-0.49zm7.22 -1.6c1.25,-1.25 2.03,-2.99 2.03,-4.9 0,-0.16 0,-0.32 -0.01,-0.48 0.19,0 0.37,-0.03 0.53,-0.1 0.02,0.19 0.03,0.39 0.03,0.58 0,2.08 -0.86,3.97 -2.24,5.32 -0.09,-0.16 -0.21,-0.3 -0.34,-0.42zm-4.87 -10.46c1.14,0 2.06,0.92 2.06,2.06 0,1.14 -0.92,2.07 -2.06,2.07 -1.14,0 -2.07,-0.93 -2.07,-2.07 0,-1.14 0.93,-2.06 2.07,-2.06zm0 0.49c0.86,0 1.57,0.71 1.57,1.58 0,0.86 -0.71,1.57 -1.57,1.57 -0.87,0 -1.57,-0.71 -1.57,-1.57 0,-0.87 0.7,-1.58 1.57,-1.58zm0.49 5.53c1.78,-0.1 3.95,-0.75 5.83,-1.56 0.16,0.1 0.35,0.15 0.55,0.15 0.6,0 1.09,-0.48 1.09,-1.08 0,-0.6 -0.49,-1.09 -1.09,-1.09 -0.59,0 -1.08,0.49 -1.08,1.09 0,0.18 0.04,0.34 0.12,0.49 -1.97,0.75 -4.18,1.47 -5.92,1.47 -1.74,-0.01 -4.11,-0.59 -5.95,-1.42 0.1,-0.16 0.15,-0.34 0.15,-0.54 0,-0.6 -0.48,-1.09 -1.08,-1.09 -0.6,0 -1.09,0.49 -1.09,1.09 0,0.6 0.49,1.08 1.09,1.08 0.17,0 0.34,-0.04 0.49,-0.11 1.93,0.92 4.13,1.43 5.9,1.52l-2.98 4.58c-0.12,-0.04 -0.24,-0.06 -0.36,-0.06 -0.6,0 -1.09,0.49 -1.09,1.09 0,0.6 0.49,1.08 1.09,1.08 0.6,0 1.08,-0.48 1.08,-1.08 0,-0.28 -0.1,-0.53 -0.27,-0.72l0.14 -0.22 2.89 -4.44 3.03 4.65c-0.17,0.19 -0.28,0.45 -0.28,0.73 0,0.6 0.49,1.08 1.09,1.08 0.6,0 1.08,-0.48 1.08,-1.08 0,-0.6 -0.48,-1.09 -1.08,-1.09 -0.13,0 -0.24,0.02 -0.36,0.06l-2.99 -4.58zm6.38 -3.08c0.33,0 0.59,0.26 0.59,0.59 0,0.32 -0.26,0.59 -0.59,0.59 -0.32,0 -0.59,-0.27 -0.59,-0.59 0,-0.33 0.27,-0.59 0.59,-0.59zm-13.76 0c0.32,0 0.59,0.26 0.59,0.59 0,0.32 -0.27,0.59 -0.59,0.59 -0.33,0 -0.59,-0.27 -0.59,-0.59 0,-0.33 0.26,-0.59 0.59,-0.59zm10.73 8.1c0.32,0 0.59,0.26 0.59,0.59 0,0.32 -0.27,0.59 -0.59,0.59 -0.33,0 -0.59,-0.27 -0.59,-0.59 0,-0.33 0.26,-0.59 0.59,-0.59zm-7.68 0c0.32,0 0.59,0.26 0.59,0.59 0,0.32 -0.27,0.59 -0.59,0.59 -0.33,0 -0.59,-0.27 -0.59,-0.59 0,-0.33 0.26,-0.59 0.59,-0.59z"/>
   <path class="fil1" d="M11.81 13.52c0.32,0 0.59,0.26 0.59,0.59 0,0.32 -0.27,0.59 -0.59,0.59 -0.33,0 -0.59,-0.27 -0.59,-0.59 0,-0.33 0.26,-0.59 0.59,-0.59zm-7.68 0c0.32,0 0.59,0.26 0.59,0.59 0,0.32 -0.27,0.59 -0.59,0.59 -0.33,0 -0.59,-0.27 -0.59,-0.59 0,-0.33 0.26,-0.59 0.59,-0.59zm-3.05 -8.1c0.32,0 0.59,0.26 0.59,0.59 0,0.32 -0.27,0.59 -0.59,0.59 -0.33,0 -0.59,-0.27 -0.59,-0.59 0,-0.33 0.26,-0.59 0.59,-0.59zm6.89 -2.45c0.86,0 1.57,0.71 1.57,1.58 0,0.86 -0.71,1.57 -1.57,1.57 -0.87,0 -1.57,-0.71 -1.57,-1.57 0,-0.87 0.7,-1.58 1.57,-1.58zm6.87 2.45c0.33,0 0.59,0.26 0.59,0.59 0,0.32 -0.26,0.59 -0.59,0.59 -0.32,0 -0.59,-0.27 -0.59,-0.59 0,-0.33 0.27,-0.59 0.59,-0.59z"/>
  </g>
 </g>
</svg>
