<?xml version="1.0" encoding="UTF-8"?>
<!DOCTYPE svg PUBLIC "-//W3C//DTD SVG 1.0//EN" "http://www.w3.org/TR/2001/REC-SVG-20010904/DTD/svg10.dtd">
<!-- Creator: CorelDRAW 2019 (64-Bit) -->
<svg xmlns="http://www.w3.org/2000/svg" xml:space="preserve" width="16px" height="16px" version="1.0" style="shape-rendering:geometricPrecision; text-rendering:geometricPrecision; image-rendering:optimizeQuality; fill-rule:evenodd; clip-rule:evenodd"
viewBox="0 0 16 16"
 xmlns:xlink="http://www.w3.org/1999/xlink">
 <defs>
  <style type="text/css">
   <![CDATA[
    .fil0 {fill:#01602D}
   ]]>
  </style>
 </defs>
 <g id="Capa_x0020_1">
  <metadata id="CorelCorpID_0Corel-Layer"/>
  <path class="fil0" d="M7.16 11.85l0.84 0.73 0.84 -0.73 0.8 0.36 -0.99 1.61 -1.32 0 -0.98 -1.6 0.81 -0.37zm-0.81 -0.24l0 -8.33 3.29 0 0 8.32 -0.54 -0.24 0 -7.44c0,-0.29 -0.57,-0.24 -0.57,-0.02l0 7.6 -0.53 0.47 -0.84 -0.74 -0.81 0.38zm0 -9.84c0.01,-0.47 0.59,-1.24 1.65,-1.23 1.06,0.01 1.63,0.74 1.64,1.23l0 0.93 -3.29 0 0 -0.93zm-0.55 0l0 10.64 2.2 3.58 2.19 -3.58 0 -10.64c-0.02,-0.8 -0.89,-1.76 -2.2,-1.76 -1.32,0.01 -2.14,0.85 -2.19,1.76z"/>
 </g>
</svg>
