<?xml version="1.0" encoding="UTF-8"?>
<!DOCTYPE svg PUBLIC "-//W3C//DTD SVG 1.0//EN" "http://www.w3.org/TR/2001/REC-SVG-20010904/DTD/svg10.dtd">
<!-- Creator: CorelDRAW 2019 (64-Bit) -->
<svg xmlns="http://www.w3.org/2000/svg" xml:space="preserve" width="16px" height="16px" version="1.0" style="shape-rendering:geometricPrecision; text-rendering:geometricPrecision; image-rendering:optimizeQuality; fill-rule:evenodd; clip-rule:evenodd"
viewBox="0 0 16 16"
 xmlns:xlink="http://www.w3.org/1999/xlink">
 <defs>
  <style type="text/css">
   <![CDATA[
    .fil0 {fill:#01602D}
   ]]>
  </style>
 </defs>
 <g id="Capa_x0020_1">
  <metadata id="CorelCorpID_0Corel-Layer"/>
  <path class="fil0" d="M1.02 14.16l1.01 -2.2 11.91 0.01 1.04 2.18 -13.96 0.01zm0.65 -12.22l6.48 0c1.96,0 3.93,0 5.89,0 1.07,0 1.12,0.1 0.94,0.87l-1.3 8.29 -11.43 -0.05c-0.44,-2.74 -0.88,-5.47 -1.31,-8.21 -0.16,-0.71 -0.1,-0.85 0.73,-0.9zm-1.46 12.84c0.71,0.24 11.3,0.09 13.74,0.09 2.44,0 2.3,0.3 0.79,-2.86 -0.43,-0.4 -0.16,-1.27 0.18,-3.53 0.32,-2.07 0.64,-4.13 0.96,-6.2 0.17,-1.08 0.06,-1.16 -1.09,-1.19 -4.4,0 -8.8,0 -13.2,0 -1.63,-0.04 -1.67,0.05 -1.43,1.61l0.85 5.65c0.15,1.07 0.62,2.73 0.23,3.61 -0.32,0.71 -1.3,2.13 -1.03,2.82zm9.37 -2.05c0.28,0.16 -0.24,0.13 0.41,0.15 0.61,0.02 0.43,-0.08 0.58,-0.2 -0.09,-0.21 0.2,-0.33 -0.44,-0.38 -0.53,-0.05 -0.49,0.04 -0.55,0.43zm-4.36 -0.22c0.14,0.41 -0.24,0.3 0.38,0.38 0.53,0.07 0.5,-0.15 0.59,-0.21 -0.1,-0.24 0.22,-0.31 -0.44,-0.37 -0.5,-0.05 -0.4,0.06 -0.53,0.2zm1.44 0.14c0.29,0.31 -0.25,0.15 0.37,0.23 0.6,0.07 0.5,-0.13 0.59,-0.2 -0.09,-0.22 0.25,-0.35 -0.46,-0.38 -0.47,-0.01 -0.42,0.02 -0.5,0.35zm4.82 -0.08c0.16,0.36 -0.14,0.23 0.35,0.3 0.59,0.09 0.52,-0.13 0.61,-0.19 -0.1,-0.22 0.25,-0.35 -0.47,-0.37 -0.53,-0.02 -0.38,0.08 -0.49,0.26zm-5.56 0.87c-0.07,-0.05 -0.09,-0.57 -0.89,-0.03 0.02,0.04 -0.19,0.54 0.56,0.39 0.3,-0.05 0.35,-0.18 0.33,-0.36zm6.45 0.37c0.57,-0.11 0.23,-0.09 0.31,-0.4 -0.4,-0.27 -1.15,-0.27 -0.89,0.2 0.07,0.14 0.32,0.26 0.58,0.2zm-5.01 -0.43c-0.4,-0.21 -0.46,-0.27 -0.89,0.03 0,0 -0.19,0.51 0.54,0.4 0.36,-0.05 0.37,-0.19 0.35,-0.43zm-4.5 0.4c0.41,-0.2 0.17,-0.01 0.17,-0.47 -0.31,-0.07 -1.31,-0.11 -0.81,0.37 0.14,0.14 0.44,0.2 0.64,0.1zm0.73 -0.37c0.09,0.26 -0.03,0.41 0.46,0.42 0.57,0.01 0.38,-0.14 0.45,-0.42 -0.43,-0.28 -0.48,-0.27 -0.91,0zm0.21 -0.73c0.39,0.31 0.58,0.29 0.93,0 -0.07,-0.21 0.15,-0.32 -0.39,-0.37 -0.66,-0.07 -0.51,0.33 -0.54,0.37zm9.03 0c0.33,0.27 0.53,0.34 0.92,0 -0.06,-0.2 0.11,-0.3 -0.37,-0.37 -0.7,-0.1 -0.51,0.32 -0.55,0.37zm-10.45 0c0.32,0.26 0.52,0.34 0.91,0 -0.07,-0.2 0.11,-0.3 -0.37,-0.37 -0.71,-0.1 -0.51,0.32 -0.54,0.37zm7.41 1.11c0.4,-0.2 0.16,-0.02 0.17,-0.49 -0.29,-0.05 -1.29,-0.08 -0.8,0.38 0.14,0.13 0.42,0.2 0.63,0.11zm-1.32 -1.11c0.36,0.29 0.55,0.31 0.92,0 -0.07,-0.2 0.14,-0.32 -0.39,-0.37 -0.67,-0.07 -0.5,0.33 -0.53,0.37zm5.51 0.73c-0.42,-0.27 -0.47,-0.28 -0.89,0 0.09,0.58 0.69,0.63 0.89,0zm-3.05 -6.19l0 0.31 0.32 0.01 0 -0.32 -0.32 0zm-5.03 -0.18l-0.33 -0.79 -0.39 0.79 -0.19 -0.76 -0.26 0 0.27 1.28 0.25 0.01 0.3 -0.66 0.26 0.64 0.25 0.01 0.29 -1.27 -0.28 0 -0.17 0.75zm2.08 0l-0.33 -0.79 -0.39 0.79 -0.18 -0.76 -0.26 0 0.27 1.28 0.24 0.01 0.3 -0.66 0.27 0.64 0.25 0.01 0.28 -1.27 -0.28 0 -0.17 0.75zm2.08 0l-0.33 -0.79 -0.39 0.79 -0.19 -0.76 -0.26 0 0.27 1.28 0.25 0.01 0.3 -0.66 0.26 0.64 0.25 0.01 0.29 -1.27 -0.28 0 -0.17 0.75z"/>
 </g>
</svg>
