<?xml version="1.0" encoding="UTF-8"?>
<!DOCTYPE svg PUBLIC "-//W3C//DTD SVG 1.0//EN" "http://www.w3.org/TR/2001/REC-SVG-20010904/DTD/svg10.dtd">
<!-- Creator: CorelDRAW 2019 (64-Bit) -->
<svg xmlns="http://www.w3.org/2000/svg" xml:space="preserve" width="16px" height="16px" version="1.0" style="shape-rendering:geometricPrecision; text-rendering:geometricPrecision; image-rendering:optimizeQuality; fill-rule:evenodd; clip-rule:evenodd"
viewBox="0 0 16 16"
 xmlns:xlink="http://www.w3.org/1999/xlink">
 <defs>
  <style type="text/css">
   <![CDATA[
    .fil0 {fill:#01602D}
   ]]>
  </style>
 </defs>
 <g id="Capa_x0020_1">
  <metadata id="CorelCorpID_0Corel-Layer"/>
  <path class="fil0" d="M8.97 10.36c0.33,-0.83 0.73,-0.47 0.64,-1.48 -0.34,-0.1 -2.63,-0.22 -3.02,-0.06 -0.52,0.21 -0.36,0.69 0.22,0.78 0.35,0.06 1.23,0 1.64,0 -0.45,1.03 -1.61,1.51 0.48,1.6 -0.48,0.81 -1.83,1.64 -2.65,2.35 -1.28,-0.59 -3.66,-3.13 -4.59,-4.77 -1.86,-3.3 -0.58,-6.09 1.54,-6.24 2,-0.14 2.1,1.15 3.52,0.49 3.1,-1.42 5.15,0.62 4.83,3.39 -0.22,1.93 -2.42,3.43 -0.64,3.61 0.21,0.02 0.64,-0.01 0.88,-0.01 0.22,1.1 -0.32,2.36 0.06,3.27 0.66,-0.01 0.47,0.06 1.21,-1.82 0.29,-0.73 0.6,-1.42 0.89,-2.11 0.01,0.79 -0.3,1.31 0.31,1.48 0.38,0.11 1.01,0.1 1.4,-0.05 0.45,-0.16 0.24,-0.72 -0.08,-0.71 -0.22,0.01 -0.53,0.03 -0.92,0.01 0.04,-1.02 0.55,-2.88 0.14,-3.66 -0.58,-0.58 -1.77,3.55 -2.27,4.28 -0.03,-1.94 0.24,-1.3 -1.3,-1.54 0.3,-0.74 0.74,-1.27 0.96,-2.18 0.59,-2.49 -1.03,-5.68 -4.05,-5.22 -0.6,0.09 -1.88,0.69 -2.23,0.62 -0.32,-0.05 -4.71,-2.41 -5.76,2.28 -0.83,3.67 2.72,7.09 4.17,8.38 1.74,1.57 1.78,1.68 3.68,0.1 0.65,-0.53 1.04,-0.95 1.59,-1.53 0.96,-1.02 0.96,-1.26 -0.65,-1.26z"/>
 </g>
</svg>
