<?xml version="1.0" encoding="UTF-8"?>
<!DOCTYPE svg PUBLIC "-//W3C//DTD SVG 1.0//EN" "http://www.w3.org/TR/2001/REC-SVG-20010904/DTD/svg10.dtd">
<!-- Creator: CorelDRAW 2019 (64-Bit) -->
<svg xmlns="http://www.w3.org/2000/svg" xml:space="preserve" width="16px" height="16px" version="1.0" style="shape-rendering:geometricPrecision; text-rendering:geometricPrecision; image-rendering:optimizeQuality; fill-rule:evenodd; clip-rule:evenodd"
viewBox="0 0 16 16"
 xmlns:xlink="http://www.w3.org/1999/xlink">
 <defs>
  <style type="text/css">
   <![CDATA[
    .fil1 {fill:#147935}
    .fil0 {fill:#FAC924}
   ]]>
  </style>
 </defs>
 <g id="Capa_x0020_1">
  <metadata id="CorelCorpID_0Corel-Layer"/>
  <g id="_1865537912576">
   <path class="fil0" d="M9.82 8.59l0.9 0.75c0.16,0.14 0.26,0.2 0.35,0.2 0.13,0 0.2,-0.07 0.36,-0.2 0.08,-0.07 0.17,-0.15 0.28,-0.25 0.08,-0.07 0.53,-0.46 0.62,-0.51 0.05,0.06 0.08,0.1 0.14,0.15 0.25,0.19 0.94,0.89 1.24,1.14l1.02 0.94c0.04,0.03 0.04,0.05 0.07,0.07l-7.47 0.01 0.92 -0.86c0.18,-0.16 0.37,-0.33 0.54,-0.5l1.03 -0.94zm3 -0.45l1.88 -1.58c0.12,-0.1 0.55,-0.49 0.63,-0.53l0.01 4.44c-0.09,-0.04 -0.39,-0.35 -0.48,-0.43 -0.17,-0.14 -0.31,-0.29 -0.47,-0.43l-1.5 -1.37c-0.06,-0.05 -0.03,-0.05 -0.07,-0.1zm-6.02 2.33l0 -4.44c0.07,0.03 1.37,1.15 1.56,1.31 0.16,0.13 0.32,0.27 0.47,0.4 0.13,0.11 0.41,0.36 0.49,0.39 -0.05,0.1 -0.37,0.38 -0.47,0.46l-0.93 0.86c-0.16,0.13 -1.03,0.98 -1.12,1.02zm4.28 -1.69c-0.07,-0.03 -0.39,-0.32 -0.48,-0.39 -1.08,-0.87 -2.15,-1.83 -3.21,-2.74l7.36 0.01c-1.07,0.91 -2.15,1.81 -3.22,2.73 -0.13,0.12 -0.31,0.29 -0.45,0.39zm-4.91 2.51c0.02,0.12 0.14,0.24 0.26,0.26l8.52 0c0.24,0 0.76,0.06 0.91,-0.08 0.18,-0.17 0.11,-0.66 0.11,-0.96l0 -4.21c0,-1.32 0.15,-1.31 -0.76,-1.31 -2.68,0 -5.35,0 -8.03,0 -0.79,0 -1.01,-0.13 -1.01,0.51 0,0.69 -0.02,5.64 0,5.79z"/>
   <path class="fil1" d="M2 6.82l0 0.5c-0.04,0.01 -0.5,0 -0.67,0 -0.26,0 -0.51,-0.03 -0.52,0.34 0,0.17 0.07,0.29 0.24,0.31l0.95 0.02c0,0 0,1.67 0,1.67l-0.2 0.01c-0.16,0.03 -0.3,0.2 -0.24,0.42 0.05,0.21 0.21,0.24 0.42,0.23l1.97 0.01c0.22,0 0.37,-0.07 0.4,-0.28 0.05,-0.36 -0.27,-0.4 -0.56,-0.4 -0.14,0 -0.27,0.01 -0.35,0.01l0 -0.5c0.61,0 1.22,0 1.83,0l0.01 0.5c-0.31,0 -0.76,-0.05 -0.76,0.33 -0.01,0.42 0.54,0.33 0.76,0.33l0 0.57c-0.23,0 -1.26,-0.04 -1.4,0.03 -0.14,0.07 -0.25,0.3 -0.12,0.49 0.1,0.17 0.28,0.14 0.51,0.14 0.21,0 1.2,0.02 1.32,-0.02 0.15,-0.05 0.28,-0.26 0.18,-0.46 -0.1,-0.19 -0.25,-0.18 -0.49,-0.18l0 -0.57c0.14,0 0.25,0.02 0.37,-0.05 0.07,-0.05 0.13,-0.15 0.13,-0.28 0,-0.37 -0.37,-0.32 -0.49,-0.33 -0.01,-0.03 -0.02,-0.47 -0.02,-0.5 0.03,0 0.1,0 0.15,0 0.02,0 0.04,0 0.05,-0.01 0.03,0 0.06,-0.01 0.08,-0.01 0.14,-0.03 0.23,-0.17 0.23,-0.33 0,-0.16 -0.13,-0.3 -0.28,-0.31 -0.08,0 -0.09,0 -0.23,-0.01 0,0 0.01,-0.43 0.02,-0.5 0.02,0 0.04,0 0.06,0 0.11,0 0.2,0.01 0.29,-0.06 0.07,-0.05 0.14,-0.13 0.14,-0.27 0.01,-0.36 -0.33,-0.34 -0.5,-0.34l0 -0.5c0.16,0 0.5,0.02 0.5,-0.33 0,-0.36 -0.34,-0.33 -0.5,-0.33l0 -0.51c0.14,0 0.25,0.02 0.37,-0.06 0.07,-0.04 0.13,-0.14 0.13,-0.28 0,-0.34 -0.33,-0.32 -0.5,-0.32 -0.54,0 -1.08,0 -1.63,0 -0.27,0 -0.5,0 -0.54,0.28 -0.02,0.15 0.05,0.25 0.13,0.32 0.09,0.08 0.19,0.06 0.33,0.06 0.55,0 1.16,0 1.71,0l-0.01 0.51c-0.15,0 -0.62,-0.06 -0.62,0.33 0,0.39 0.47,0.33 0.62,0.33l0.01 0.5c-0.41,0 -0.88,0 -1.29,0 -0.35,0 -0.91,-0.11 -0.9,0.34 0,0.44 0.55,0.33 0.9,0.33 0.41,0 0.89,0 1.3,0l-0.02 0.5c-0.67,0 -1.41,0 -2.07,0 -0.16,0 -0.68,-0.05 -0.58,0.41 0.07,0.34 0.51,0.24 0.82,0.26l0 0.5 -1.44 0 0 -1.67c0.21,0 0.39,-0.08 0.39,-0.33 0,-0.25 -0.19,-0.33 -0.39,-0.34l0 -0.5c0.27,0 0.54,0 0.8,0 0.29,0 0.4,-0.25 0.32,-0.46 -0.09,-0.23 -0.34,-0.2 -0.6,-0.2 -0.4,0 -2.21,-0.04 -2.34,0.04 -0.19,0.11 -0.22,0.39 -0.05,0.54 0.17,0.15 1.59,0.08 1.87,0.08z"/>
  </g>
 </g>
</svg>
