<?xml version="1.0" encoding="UTF-8"?>
<!DOCTYPE svg PUBLIC "-//W3C//DTD SVG 1.0//EN" "http://www.w3.org/TR/2001/REC-SVG-20010904/DTD/svg10.dtd">
<!-- Creator: CorelDRAW 2019 (64-Bit) -->
<svg xmlns="http://www.w3.org/2000/svg" xml:space="preserve" width="16px" height="16px" version="1.0" style="shape-rendering:geometricPrecision; text-rendering:geometricPrecision; image-rendering:optimizeQuality; fill-rule:evenodd; clip-rule:evenodd"
viewBox="0 0 16 16"
 xmlns:xlink="http://www.w3.org/1999/xlink">
 <defs>
  <style type="text/css">
   <![CDATA[
    .fil1 {fill:#147935}
    .fil0 {fill:#FAC924}
   ]]>
  </style>
 </defs>
 <g id="Capa_x0020_1">
  <metadata id="CorelCorpID_0Corel-Layer"/>
  <path class="fil0" d="M6.18 9.86l4.37 0 0 -4.37 -4.37 0 0 4.37zm2.18 -2.19l0 0 0 0 0 0z"/>
  <g>
   <path class="fil1" d="M12.35 11.37l2.98 0 0 2.98 -2.98 0 0 -2.98zm-0.33 3.31l3.64 0 0 -3.64 -3.64 0 0 3.64zm0.74 -8.05l2.23 0 0 2.23 -2.23 0 0 -2.23zm-0.25 2.48l1.33 0 0 0 0 0 0 0 0 0 0 0 -1.33 0zm1.33 0l1.4 0 0 -2.73 -2.73 0 0 2.73 1.33 0zm-7.26 2.83l3.57 0 0 3.58 -3.57 0 0 -3.58zm-0.4 3.98l4.37 0 0 -4.37 -4.37 -0.01 0 4.38zm0.68 -15.5l2.98 0 0 2.98 -2.98 0 0 -2.98zm-0.33 3.31l3.64 0 0 -3.64 -3.64 0 0 3.64zm-5.79 2.16l3.58 0 0 3.58 -3.58 0 0 -3.58zm-0.4 3.97l4.37 0 0 -4.37 -4.37 0 0 4.37zm1.04 1.57l2.24 0 0 2.23 -2.24 0 0 -2.23zm-0.24 2.48l2.72 0 0 -2.73 -2.72 0 0 2.73z"/>
  </g>
 </g>
</svg>
