<?xml version="1.0" encoding="UTF-8"?>
<!DOCTYPE svg PUBLIC "-//W3C//DTD SVG 1.0//EN" "http://www.w3.org/TR/2001/REC-SVG-20010904/DTD/svg10.dtd">
<!-- Creator: CorelDRAW 2019 (64-Bit) -->
<svg xmlns="http://www.w3.org/2000/svg" xml:space="preserve" width="16px" height="16px" version="1.0" style="shape-rendering:geometricPrecision; text-rendering:geometricPrecision; image-rendering:optimizeQuality; fill-rule:evenodd; clip-rule:evenodd"
viewBox="0 0 16 16"
 xmlns:xlink="http://www.w3.org/1999/xlink">
 <defs>
  <style type="text/css">
   <![CDATA[
    .fil0 {fill:#238145}
    .fil1 {fill:#F4CC33}
   ]]>
  </style>
 </defs>
 <g id="Capa_x0020_1">
  <metadata id="CorelCorpID_0Corel-Layer"/>
  <g id="_2682833513712">
   <path class="fil0" d="M14.96 5.8c-0.23,0.14 -0.5,0.25 -0.8,0.44 -0.46,0.29 -1.21,0.81 -1.58,1.24 -0.08,0.09 -0.32,0.32 -0.45,0.48 -0.4,0.51 -0.68,0.9 -1.02,1.53 -0.17,0.32 -0.7,1.46 -0.75,1.8 0.01,-0.23 0.23,-1.22 0.29,-1.49 0.12,-0.49 0.24,-0.93 0.38,-1.41 0.08,-0.29 0.77,-2.33 0.95,-2.58l2.98 -0.01zm-4.9 -2.13l2.62 0c-0.6,1.12 -1.12,2.38 -1.57,3.59 -0.35,0.94 -0.93,3.1 -1.06,4.17l0.01 -7.76zm-8.34 4.27l0.27 -0.01 0 -5.91 7.79 0c0.02,1.25 0,2.76 0,4.04 0,1.34 0,2.69 0,4.04 0,1.33 0.03,2.71 0,4.04 -0.01,0.15 0.06,0.28 0.2,0.21 0.1,-0.05 0.08,-0.23 0.1,-0.39 0.21,-1.73 0.67,-3.39 1.55,-4.82l0.29 -0.44c0.25,-0.33 0.23,-0.32 0.53,-0.67 0.04,-0.04 0.07,-0.07 0.11,-0.11l0.36 -0.37c0.28,-0.26 0.44,-0.41 0.77,-0.65 0.62,-0.44 1.11,-0.7 1.8,-0.99 0.07,-0.03 0.27,-0.1 0.32,-0.14 0.11,-0.09 0.07,-0.27 -0.09,-0.28 -0.58,-0.02 -1.22,0 -1.8,0 -0.6,0 -1.21,0.01 -1.81,0 0.06,-0.17 0.41,-0.87 0.51,-1.07l0.4 -0.77c0.08,-0.15 0.06,-0.17 -0.03,-0.28l-2.93 -0.01 -0.01 -1.56c-0.13,-0.12 -0.17,-0.09 -0.35,-0.09l-7.4 0c-0.58,0 -0.58,-0.06 -0.58,0.33 0,1.93 -0.03,4.01 0,5.9z"/>
   <path class="fil1" d="M0.32 11.29l3.07 0c0,1 0.1,1.51 -0.4,2.19 -0.21,0.28 -0.64,0.56 -1.13,0.56 -0.49,0 -0.83,-0.22 -1.13,-0.57 -0.32,-0.36 -0.41,-0.77 -0.41,-1.41l0 -0.77zm0.01 -0.3c-0.03,-0.31 -0.01,-0.77 0,-1.09 0.01,-0.81 0.6,-1.57 1.39,-1.65l0 2.74 -1.39 0zm1.66 -3.06l-0.27 0.01c-0.37,0.06 -0.67,0.17 -0.92,0.38 -0.65,0.56 -0.75,1.12 -0.75,2 0,0.47 0,0.94 0,1.42 0,0.62 -0.03,1.2 0.33,1.74 0.29,0.44 0.67,0.74 1.16,0.84 1.01,0.19 1.97,-0.55 2.11,-1.8l0.02 -1.42c-0.01,-0.84 0.1,-1.74 -0.4,-2.4 -0.06,-0.07 -0.23,-0.31 -0.32,-0.34 -0.09,-0.03 -0.17,0.04 -0.18,0.13 -0.01,0.12 0.08,0.16 0.13,0.21 0.17,0.16 0.39,0.53 0.46,0.9 0.05,0.27 0.05,1.11 0.03,1.39l-1.39 0 -0.01 -3.06z"/>
  </g>
 </g>
</svg>
