<?xml version="1.0" encoding="UTF-8"?>
<!DOCTYPE svg PUBLIC "-//W3C//DTD SVG 1.0//EN" "http://www.w3.org/TR/2001/REC-SVG-20010904/DTD/svg10.dtd">
<!-- Creator: CorelDRAW 2019 (64-Bit) -->
<svg xmlns="http://www.w3.org/2000/svg" xml:space="preserve" width="16px" height="16px" version="1.0" style="shape-rendering:geometricPrecision; text-rendering:geometricPrecision; image-rendering:optimizeQuality; fill-rule:evenodd; clip-rule:evenodd"
viewBox="0 0 16 16"
 xmlns:xlink="http://www.w3.org/1999/xlink">
 <defs>
  <style type="text/css">
   <![CDATA[
    .fil0 {fill:#03622F}
   ]]>
  </style>
 </defs>
 <g id="Capa_x0020_1">
  <metadata id="CorelCorpID_0Corel-Layer"/>
  <path class="fil0" d="M1.97 7.51c-0.27,0.01 -0.13,-0.38 -0.09,-0.56 0.81,-4.58 6.93,-5.37 9.22,-2.31 0.51,0.68 0.75,1.1 0.88,1.51 0.11,0.34 0.25,0.92 0.3,1.27 0.04,0.21 0.05,0.39 0.11,0.72 0.04,0.17 0.14,0.27 0.32,0.24 0.29,-0.05 0.39,-0.2 0.31,-0.84 -0.05,-0.33 -0.14,-0.79 -0.28,-1.43l0.61 0.08c0.38,0.05 0.35,0.07 0.35,0.36l-0.03 1.27c0.02,0.24 0.03,0.33 0.23,0.43 0.51,0.26 0.95,0.02 1.23,0.45 0.1,0.17 0.05,0.27 -0.02,0.39 -1.02,0.95 -5.43,-0.6 -7.03,-0.72 -3.72,-0.25 -6.27,1.15 -7.3,0.82 0.36,-0.93 1.81,-1.04 2.27,-1.21 0.09,-0.06 0.14,-0.11 0.13,-0.31 -0.06,-0.1 -0.05,-0.12 -0.17,-0.17 -0.3,-0.12 -0.5,-0.05 -0.85,-0.01 -0.06,0.01 -0.12,0.02 -0.19,0.02zm11.48 2.53c1.19,0 2.25,0.08 2.45,-1.03 0.06,-0.38 -0.07,-0.65 -0.27,-0.81 -0.37,-0.29 -0.44,-0.28 -1.05,-0.48 -0.26,-0.08 -0.26,-0.09 -0.24,-0.37l0.08 -1.19c0.03,-0.4 -0.02,-0.44 -0.37,-0.52l-1.59 -0.25c-0.17,-0.27 -0.33,-0.5 -0.51,-0.77 -2.34,-3.41 -7.51,-3.1 -9.47,-0.47 -0.77,1.04 -1.25,1.99 -1.43,3.66 -0.27,0.29 -0.87,0.74 -0.94,1.14 -0.38,1.97 3.6,0.45 4.55,0.3 4.01,-0.64 4.69,0.19 7.11,0.58 0.17,0.03 0.34,0.05 0.51,0.08 0.43,0.07 0.73,0.14 1.17,0.13zm-8.74 -5.21c0.13,0.04 0.29,0.01 0.49,-0.04 0.54,-0.14 1.33,-0.5 2.19,-0.44 0.77,0.05 1.43,0.43 1.93,0.64 0.15,0.06 0.62,0.25 0.71,0.08 0.14,-0.26 -0.09,-0.48 -0.26,-0.62 -0.44,-0.34 -1.62,-0.72 -2.25,-0.77 -0.79,-0.07 -1.89,0.12 -2.55,0.48 -0.77,0.41 -0.26,0.67 -0.26,0.67zm7.63 5.57l-0.19 0.77 -0.33 0.93c0.01,0.18 0.06,0.29 0.13,0.32 0.12,0.05 0.28,0.06 0.44,-0.13 0.31,-0.37 0.61,-1.24 0.59,-1.87 -0.02,-0.15 -0.1,-0.29 -0.27,-0.29 -0.17,0 -0.28,0.05 -0.37,0.27zm-1.91 0.03c-0.75,0.22 -0.35,1.23 0.38,1.01 0.74,-0.22 0.36,-1.24 -0.38,-1.01zm-7.01 2.93c-0.07,-0.11 -0.2,-0.16 -0.4,-0.36 -0.56,-0.52 -0.86,-1.06 -1.08,-1.81 -0.07,-0.24 -0.09,-0.41 -0.12,-0.54 -0.09,-0.51 -0.81,-0.6 -0.71,0.08 0.02,0.18 0.08,0.43 0.21,0.8 0.26,0.75 0.93,2.14 1.79,2.33 0.45,0.11 0.5,-0.21 0.31,-0.5z"/>
 </g>
</svg>
