<?xml version="1.0" encoding="UTF-8"?>
<!DOCTYPE svg PUBLIC "-//W3C//DTD SVG 1.0//EN" "http://www.w3.org/TR/2001/REC-SVG-20010904/DTD/svg10.dtd">
<!-- Creator: CorelDRAW 2019 (64-Bit) -->
<svg xmlns="http://www.w3.org/2000/svg" xml:space="preserve" width="16px" height="16px" version="1.0" style="shape-rendering:geometricPrecision; text-rendering:geometricPrecision; image-rendering:optimizeQuality; fill-rule:evenodd; clip-rule:evenodd"
viewBox="0 0 16 16"
 xmlns:xlink="http://www.w3.org/1999/xlink">
 <defs>
  <style type="text/css">
   <![CDATA[
    .fil0 {fill:#1B7E3E}
    .fil1 {fill:#FFF000}
   ]]>
  </style>
 </defs>
 <g id="Capa_x0020_1">
  <metadata id="CorelCorpID_0Corel-Layer"/>
  <g id="_1865383729104">
   <path class="fil0" d="M5.27 14.81l2.54 0 0.01 0.6 -2.55 -0.01 0 -0.59zm6.59 -8.24c-0.15,0.05 -0.26,0.16 -0.25,0.32 0,0 0,0 0,0 0,0 -0.18,0 -0.19,0 0,0 0,0 0,0 -0.01,-0.2 -0.16,-0.39 -0.41,-0.33 -0.15,0.05 -0.23,0.14 -0.25,0.24 0,0 0,0 0,0 0,0 -2.11,0.02 -2.35,0.02 0,0 0,0 0,0 0,-0.09 -0.01,-0.19 -0.02,-0.28 -0.07,-0.41 -0.28,-0.8 -0.59,-1.09 0,0 0,0 0,0 0,-0.01 1.96,-1.19 1.96,-1.19 0,0 0,0 0,0 0,0 0,0.01 0.01,0.01 0.07,0.1 0.2,0.15 0.35,0.09 0.09,-0.03 0.42,-0.26 0.54,-0.33 0.16,-0.11 0.96,-0.6 1.02,-0.7 0.16,-0.25 -0.08,-0.54 -0.36,-0.41 -0.16,0.07 -1.52,0.96 -1.56,1.04 -0.06,0.1 -0.06,0.2 -0.01,0.28 0,0.01 0,0.01 0.01,0.02 0,0 0,0 0,0 0,0 -1.96,1.18 -1.96,1.18 0,0 0,0 0,0 -0.3,-0.28 -0.7,-0.46 -1.14,-0.49 0,0 -0.09,-0.01 -0.1,-0.01 -0.01,0 -0.01,0 -0.01,0 0,0 -0.01,-2.04 -0.02,-2.61 0.02,0 0.06,0 0.08,-0.01 0.11,-0.04 0.21,-0.17 0.21,-0.37 0,-0.4 0.02,-0.96 0,-1.42 -0.01,-0.28 -0.06,-0.51 -0.31,-0.51 -0.25,0 -0.28,0.3 -0.29,0.53 -0.02,0.31 -0.02,1.07 0.01,1.38 0.03,0.24 0.13,0.37 0.25,0.4 0,0 0.03,0 0.05,0 0,0.26 0.02,2.6 0.02,2.61 0,0 0,0 0,0 -0.01,0 -0.07,0.01 -0.09,0.01 -0.07,0 -0.15,0.01 -0.23,0.02 -0.42,0.07 -0.81,0.28 -1.11,0.59 0,0 0,0 0,0 0,0 -1.81,-1.26 -1.81,-1.26 0,0 0,0 0,0 0.14,-0.15 0.05,-0.37 -0.13,-0.48l-1.05 -0.67c-0.15,-0.1 -0.42,-0.34 -0.62,-0.22 -0.28,0.17 -0.15,0.41 0.05,0.54l1.05 0.67c0.15,0.09 0.41,0.34 0.63,0.21 0.03,-0.02 0.05,-0.03 0.07,-0.05 0,0 0,0 0,0 0,0 1.81,1.26 1.81,1.26 0,0 0,0.01 0,0.01 -0.29,0.31 -0.48,0.73 -0.49,1.21 0,0 0,0 0,0 -0.01,0 -0.42,0.01 -0.43,0.01 0,0 0,0 0,0 0,-0.26 -0.26,-0.3 -0.46,-0.31 -1.13,-0.01 -2.34,-0.05 -2.33,1.17l0 6.08c0,0.87 0.59,1.07 1.3,1.09 0.69,0.02 1.5,-0.01 1.98,-0.01l0 0.58c-0.28,0.06 -0.66,-0.07 -0.79,0.15 -0.17,0.28 0.06,0.44 0.34,0.44l4.57 0c0.28,0 0.5,-0.16 0.34,-0.43 -0.12,-0.21 -0.47,-0.13 -0.76,-0.15l0 -0.59c0.67,-0.04 1.36,0.03 1.93,0.01 0.78,-0.03 1.34,-0.22 1.34,-1.09l0 -4.14c0,-0.51 -0.53,-0.46 -0.57,-0.1 -0.04,0.25 0.01,2.99 -0.01,3.55l-9.09 0 0 -5.35c0.05,-0.81 0.96,-0.64 1.75,-0.64 0.23,0 0.46,0 0.46,-0.26 0,0 0,0 0,0 0.01,0 0.42,-0.01 0.43,-0.01 0,0 0,0 0,0 -0.01,0.11 0,0.23 0.02,0.34 0.13,0.87 0.9,1.63 1.89,1.61 0,0 0.01,0 0.01,0 0,0.01 0.01,0.27 0.01,0.27 0,0 0,0 0,0 -0.15,0 -0.3,0.01 -0.46,0.03 -1.06,0.15 -1.69,0.65 -2.2,1.19 -0.52,0.57 -1.2,2.29 -0.6,2.37 0.59,0.07 0.01,-0.93 1.18,-2.15 1.12,-1.17 3.07,-1.12 4.16,0.03 0.41,0.44 0.69,1.03 0.76,1.78 0.03,0.25 0.19,0.45 0.44,0.32 0.23,-0.11 0.16,-0.44 0.12,-0.67 -0.11,-0.66 -0.42,-1.29 -0.89,-1.8 -0.61,-0.66 -1.49,-1.1 -2.5,-1.1 0,0 -0.01,0 -0.01,0 0,0 -0.01,-0.26 -0.01,-0.27 0,0 0.01,0 0.01,0 0.08,0 0.15,-0.01 0.23,-0.02 0.88,-0.13 1.64,-0.88 1.62,-1.89 0,0 0,0 0,0 0.24,0 2.35,-0.01 2.35,-0.01 0,0 0,0 0,0 -0.04,0.21 0.13,0.45 0.41,0.39 0.17,-0.04 0.24,-0.17 0.25,-0.3 0,0 0,-0.01 0,-0.01 0.02,0 0.19,0 0.19,0 0,0 0,0 0,0 0.01,0.2 0.21,0.38 0.44,0.3 0.16,-0.05 0.22,-0.17 0.22,-0.3 0,0 0,0 0,0 0.01,0 0.17,0 0.17,0 0,0 0,0 0,0 0.01,0.19 0.18,0.36 0.42,0.31 0.42,-0.08 0.27,-0.76 -0.16,-0.64 -0.18,0.06 -0.26,0.19 -0.26,0.32 0,0 0,0.01 0,0.01 0,0 -0.16,0 -0.17,0 0,0 0,0 0,0 0,-0.2 -0.17,-0.4 -0.41,-0.32zm-6.65 0.4c-0.07,-0.76 0.49,-1.38 1.17,-1.44 0.77,-0.07 1.39,0.5 1.45,1.18 0.15,1.77 -2.47,1.95 -2.62,0.26zm-2.69 7.26c-0.44,0 -0.53,-0.18 -0.53,-0.61l9.09 0c0,0.35 -0.05,0.61 -0.51,0.61l-8.05 0z"/>
   <path class="fil1" d="M10.79 8.21l0 0.56c1.44,0.01 2.94,0.3 3.69,-0.94 0.64,-1.06 0.05,-2.57 -1.29,-2.8 -0.35,-0.07 -1.86,-0.06 -2.24,-0.02 -0.42,0.04 -0.76,0.21 -1.02,0.44 0,0 0,0 0,0 0,0 -0.25,-0.56 -0.51,-1.17 -0.31,-0.7 -0.64,-1.46 -0.64,-1.46 0,0 0,0 0,0 -0.19,0.08 -0.37,-0.02 -0.41,-0.18 0,0 0,0 0,0 0,0 0,0 0,0l0 0 0 0 0 0c0,0 0,0 0,0 0,0 0,0 0,0 -0.04,-0.19 0.07,-0.29 0.15,-0.41l0.34 -0.52c0.15,-0.22 0.47,-0.25 0.55,0.02 0.03,0.14 -0.11,0.41 -0.28,0.64 -0.16,0.24 -0.33,0.44 -0.35,0.45 0,0 0,0 0,0 0,0 0.33,0.76 0.64,1.46 0.26,0.61 0.51,1.17 0.51,1.17 0,0 0,0 0,0 -0.16,0.14 -0.29,0.3 -0.38,0.47 -0.33,0.58 -0.24,1.21 -0.24,2.05 0,0.85 0.06,0.8 1.5,0.8 0.01,0 -0.02,0 -0.02,0l0 -0.56c-0.41,-0.01 -0.72,-0.02 -0.89,-0.04 -0.03,-0.29 -0.03,-1.41 0.03,-1.66 0.29,-1.17 1.73,-0.94 2.5,-0.94 0.78,0 1,0.03 1.35,0.37 0.73,0.71 0.37,1.9 -0.52,2.18 -0.21,0.06 -0.93,0.09 -1.66,0.09 -0.26,0 -0.56,0 -0.81,0zm-6.7 -6.65c-0.2,0.07 -0.2,0.23 -0.13,0.39 0.06,0.15 0.42,0.71 0.52,0.8 0.09,0.08 0.19,0.12 0.33,0.07 0.1,-0.04 0.15,-0.1 0.16,-0.18 0,0 0,0 0,0 0,0 3.26,0 3.4,0 -0.14,0 -3.4,0 -3.4,0 0,0 0,0 0,0 0,-0.04 0,-0.09 -0.02,-0.14 -0.06,-0.19 -0.38,-0.67 -0.52,-0.85 -0.07,-0.09 -0.17,-0.16 -0.34,-0.09z"/>
  </g>
 </g>
</svg>
