<?xml version="1.0" encoding="UTF-8"?>
<!DOCTYPE svg PUBLIC "-//W3C//DTD SVG 1.1//EN" "http://www.w3.org/Graphics/SVG/1.1/DTD/svg11.dtd">
<!-- Creator: CorelDRAW 2019 (64-Bit) -->
<svg xmlns="http://www.w3.org/2000/svg" xml:space="preserve" width="16px" height="16px" version="1.1" style="shape-rendering:geometricPrecision; text-rendering:geometricPrecision; image-rendering:optimizeQuality; fill-rule:evenodd; clip-rule:evenodd"
viewBox="0 0 16 16"
 xmlns:xlink="http://www.w3.org/1999/xlink">
 <defs>
  <style type="text/css">
   <![CDATA[
    .fil0 {fill:#147935}
    .fil1 {fill:#F9CA26}
   ]]>
  </style>
 </defs>
 <g id="Capa_x0020_1">
  <metadata id="CorelCorpID_0Corel-Layer"/>
  <g id="_2682721728256">
   <path class="fil0" d="M14.89 9.26c0.05,0.07 -0.08,-0.34 -0.1,-0.69 0.1,-0.18 0.22,-0.25 0.24,-0.52 0.03,-0.27 -0.13,-0.55 -0.35,-0.65l-0.02 -2.41 1.21 -0.06c-1.53,-1.6 -3.06,-3.21 -4.6,-4.8l-5.29 0.08 4.3 4.99 4.14 -0.21 0 2.41c-0.27,0.18 -0.35,0.42 -0.34,0.62 0.01,0.26 0.06,0.34 0.25,0.55l-0.11 0.68 0.22 -0.27 0.14 0.36c0.05,-0.1 0.06,-0.25 0.11,-0.34l0.2 0.26z"/>
   <path class="fil0" d="M9.36 15.14l-1.7 -0.02 0.01 -1.13 3.93 0.02c0.41,-0.03 0.77,-0.14 1.05,-0.48 0.54,-0.66 0.38,-1.66 0.38,-2.76 0,-1.06 0.02,-2.15 0,-3.22l-0.56 0c-0.02,1.4 0.1,3.6 -0.02,4.87 -0.06,0.55 -0.25,0.87 -0.81,0.88 -2.99,0.06 -6.22,0 -9.25,0 -1.54,0 -1.78,0.17 -1.77,-1.57l-0.01 -5.51c0,-1 0.1,-1.28 0.37,-1.4l0.02 -0.61c-1.1,0.04 -0.94,1.87 -0.94,3.26 0,1.44 0,2.89 -0.01,4.33 0,1.73 0.3,2.2 1.79,2.19 1.2,0 2.41,0.01 3.61,0.01l0 1.13 -1.7 0.01 -0.42 0.81 6.42 -0.05 -0.39 -0.76z"/>
   <path class="fil1" d="M6.67 4.39l-0.3 0.01 0 7.4 -4.48 -0.01 0.01 -8.08c0.88,-0.32 2.73,-0.42 3.5,-0.09 0.66,0.25 0.82,0.58 1.03,0.51 -0.41,-0.74 -1.38,-1.08 -2.08,-1.13 -1,-0.06 -2.05,0.01 -3.05,0l-0.02 9.52 10.52 0.01 0.01 -4.81 -0.63 -0.01 -0.02 4.08 -4.46 0 -0.03 -7.4z"/>
   <path class="fil0" d="M13.09 7.08l0.73 -1.94c-0.59,-0.12 -2.91,0.4 -3.72,0.45 -0.12,-0.04 -1.28,-1.59 -1.38,-1.75 -0.24,-0.3 -1.18,-1.64 -1.43,-1.75 -0.2,0.32 -0.35,0.75 -0.5,1.11 -0.29,0.66 -0.19,0.63 0.1,1.22 1.24,2.55 3.66,3.43 6.2,2.66z"/>
  </g>
 </g>
</svg>
