<?xml version="1.0" encoding="UTF-8"?>
<!DOCTYPE svg PUBLIC "-//W3C//DTD SVG 1.0//EN" "http://www.w3.org/TR/2001/REC-SVG-20010904/DTD/svg10.dtd">
<!-- Creator: CorelDRAW 2019 (64-Bit) -->
<svg xmlns="http://www.w3.org/2000/svg" xml:space="preserve" width="16px" height="16px" version="1.0" style="shape-rendering:geometricPrecision; text-rendering:geometricPrecision; image-rendering:optimizeQuality; fill-rule:evenodd; clip-rule:evenodd"
viewBox="0 0 16 16"
 xmlns:xlink="http://www.w3.org/1999/xlink">
 <defs>
  <style type="text/css">
   <![CDATA[
    .fil0 {fill:#147935}
    .fil2 {fill:#343434}
    .fil1 {fill:#FCCF40}
   ]]>
  </style>
 </defs>
 <g id="Capa_x0020_1">
  <metadata id="CorelCorpID_0Corel-Layer"/>
  <g id="_1865680452400">
   <path class="fil0" d="M0.93 5.92l-0.88 -0.51 0.88 -0.47 0 0.98zm-0.64 6.39c-0.07,0.55 -0.08,1.26 0.02,1.84 0.18,1 0.99,1.59 1.84,1.72 0.28,0.04 0.81,0.09 1.45,0.08 5.15,-0.02 6.28,-0.02 11.25,-0.03 0.1,-0.22 0.1,-0.87 0,-1.09 -5.15,-0.05 -7.89,-0.04 -12.04,-0.05 -0.69,-0.06 -1.18,-0.16 -1.45,-0.94 -0.14,-0.47 -0.12,-0.99 0.02,-1.32 0.11,-0.62 1.06,-0.76 1.57,-0.77 1.73,-0.06 3.53,0 5.27,0 2.23,0 4.5,-0.01 6.74,-0.06l0 -1.1c-0.61,-0.04 -2.51,0 -3.2,0 -0.73,0 -8.15,0.03 -9.57,0 -0.95,-0.02 -1.76,0.67 -1.9,1.72z"/>
   <path class="fil1" d="M0.32 5.56l-0.01 -0.29 -0.26 0.14 0.27 0.15zm13.74 0.92c0.06,0.48 0.08,1.12 -0.02,1.64 -0.16,0.9 -0.88,1.43 -1.64,1.54 -0.26,0.04 -0.73,0.08 -1.3,0.08 -4.61,-0.02 -5.62,-0.03 -10.06,-0.04 -0.09,-0.2 -0.1,-0.77 -0.01,-0.97 4.61,-0.05 7.06,-0.03 10.78,-0.05 0.62,-0.04 1.06,-0.14 1.29,-0.83 0.13,-0.43 0.11,-0.89 -0.01,-1.18 -0.11,-0.56 -0.95,-0.69 -1.41,-0.7 -1.55,-0.05 -3.16,0 -4.71,0 -2,0 -4.03,0 -6.04,-0.05l0 -0.98c0.55,-0.04 2.25,0 2.86,0 0.66,0 7.31,0.03 8.57,-0.01 0.85,-0.02 1.58,0.61 1.7,1.55zm0.9 5.21l0.99 -0.57 -0.99 -0.53 0 1.1zm-1.84 -10.8l0.74 -0.43 -0.74 -0.4 0 0.83z"/>
   <path class="fil2" d="M15.65 11.29l0.01 -0.33 0.29 0.16 -0.3 0.17zm-2.01 -10.7l0 -0.25 0.22 0.12 -0.22 0.13zm-11.54 0.76c-0.05,0.41 -0.06,0.94 0.02,1.38 0.13,0.76 0.74,1.2 1.38,1.29 0.21,0.04 0.61,0.07 1.09,0.07 3.86,-0.02 4.72,-0.02 8.44,-0.03 0.08,-0.17 0.08,-0.65 0.01,-0.81 -3.87,-0.05 -5.93,-0.03 -9.05,-0.05 -0.51,-0.04 -0.88,-0.12 -1.08,-0.7 -0.11,-0.35 -0.1,-0.74 0.01,-0.99 0.09,-0.46 0.79,-0.57 1.18,-0.58 1.3,-0.04 2.65,0 3.96,0 1.67,0 3.38,-0.01 5.06,-0.04l0 -0.83c-0.46,-0.03 -1.89,0 -2.4,0 -0.55,0 -6.13,0.03 -7.19,0 -0.71,-0.02 -1.32,0.5 -1.43,1.29zm2.7 -0.08c-0.36,0.01 -0.47,-0.01 -0.74,0 -0.16,0.01 -0.27,0.05 -0.27,0.15 0,0.12 0.12,0.17 0.24,0.17 0.26,0 0.54,-0.01 0.8,-0.01l7.26 0c0.4,0 0.39,-0.01 0.46,-0.16 -0.06,-0.13 -0.04,-0.15 -0.22,-0.16 -0.08,0 -0.19,0.01 -0.28,0.01 -2.42,0 -4.83,0 -7.25,0zm0 0.63c-0.36,0.01 -0.47,-0.01 -0.74,0 -0.16,0.01 -0.27,0.05 -0.27,0.15 0,0.12 0.12,0.17 0.24,0.17 0.26,0 0.54,-0.01 0.8,-0.01l7.26 0c0.4,0 0.39,-0.01 0.46,-0.16 -0.06,-0.13 -0.04,-0.15 -0.22,-0.16 -0.08,0 -0.19,0.01 -0.28,0.01 -2.42,0 -4.83,0 -7.25,0zm0 0.63c-0.36,0.01 -0.47,-0.01 -0.74,0 -0.16,0.01 -0.27,0.05 -0.27,0.15 0,0.12 0.12,0.17 0.24,0.17 0.26,0 0.54,-0.01 0.8,-0.01l7.26 0c0.4,0 0.39,-0.01 0.46,-0.16 -0.06,-0.13 -0.04,-0.15 -0.22,-0.16 -0.08,0 -0.19,0.01 -0.28,0.01 -2.42,0 -4.83,0 -7.25,0zm6.05 3.85c0.43,0.01 0.56,-0.01 0.88,0 0.19,0.01 0.32,0.06 0.32,0.18 0,0.14 -0.14,0.19 -0.28,0.2 -0.31,0 -0.65,-0.01 -0.96,-0.01l-8.64 -0.01c-0.48,0.01 -0.48,0 -0.56,-0.18 0.07,-0.16 0.04,-0.18 0.26,-0.19 0.1,0 0.23,0.01 0.34,0.01 2.88,0 5.76,0 8.64,0zm0 0.75c0.43,0.01 0.56,-0.01 0.88,0 0.19,0.01 0.32,0.06 0.32,0.18 0,0.15 -0.14,0.19 -0.28,0.2 -0.31,0 -0.65,-0.01 -0.96,-0.01l-8.64 0c-0.48,0 -0.48,-0.01 -0.56,-0.19 0.07,-0.16 0.04,-0.18 0.26,-0.19 0.1,0 0.23,0.01 0.34,0.01 2.88,0 5.76,0 8.64,0zm0 0.75c0.43,0.01 0.56,-0.01 0.88,0 0.19,0.01 0.32,0.06 0.32,0.18 0,0.15 -0.14,0.2 -0.28,0.2 -0.31,0.01 -0.65,-0.01 -0.96,-0.01l-8.64 0c-0.48,0 -0.48,-0.01 -0.56,-0.19 0.07,-0.15 0.04,-0.18 0.26,-0.19 0.1,0 0.23,0.01 0.34,0.01 2.88,0 5.76,0 8.64,0zm-6.97 4.32c-0.48,0.02 -0.63,-0.01 -0.98,0.01 -0.21,0 -0.36,0.06 -0.36,0.2 0,0.16 0.16,0.21 0.31,0.21 0.35,0.01 0.72,-0.01 1.08,-0.01l9.65 0c0.54,0 0.53,-0.01 0.62,-0.2 -0.07,-0.18 -0.04,-0.21 -0.28,-0.22 -0.12,0 -0.26,0.01 -0.38,0.01 -3.22,0 -6.44,0 -9.66,0zm0 0.84c-0.48,0.02 -0.63,-0.01 -0.98,0 -0.21,0.01 -0.36,0.07 -0.36,0.2 0,0.17 0.16,0.22 0.31,0.22 0.35,0.01 0.72,-0.01 1.08,-0.01l9.65 0c0.54,0 0.53,-0.01 0.62,-0.21 -0.07,-0.17 -0.04,-0.2 -0.28,-0.21 -0.12,0 -0.26,0.01 -0.38,0.01 -3.22,0 -6.44,0 -9.66,0zm0 0.84c-0.48,0.02 -0.63,-0.01 -0.98,0 -0.21,0.01 -0.36,0.07 -0.36,0.2 0,0.17 0.16,0.22 0.31,0.22 0.35,0.01 0.72,-0.01 1.08,-0.01l9.65 0c0.54,0 0.53,-0.01 0.62,-0.21 -0.07,-0.17 -0.04,-0.2 -0.28,-0.21 -0.12,0 -0.26,0.01 -0.38,0.01 -3.22,0 -6.44,0 -9.66,0z"/>
  </g>
 </g>
</svg>
