<?xml version="1.0" encoding="UTF-8"?>
<!DOCTYPE svg PUBLIC "-//W3C//DTD SVG 1.1//EN" "http://www.w3.org/Graphics/SVG/1.1/DTD/svg11.dtd">
<!-- Creator: CorelDRAW 2019 (64-Bit) -->
<svg xmlns="http://www.w3.org/2000/svg" xml:space="preserve" width="16px" height="16px" version="1.1" style="shape-rendering:geometricPrecision; text-rendering:geometricPrecision; image-rendering:optimizeQuality; fill-rule:evenodd; clip-rule:evenodd"
viewBox="0 0 16 16"
 xmlns:xlink="http://www.w3.org/1999/xlink">
 <defs>
  <style type="text/css">
   <![CDATA[
    .fil1 {fill:#1B7C3B}
    .fil0 {fill:#F9CA25}
   ]]>
  </style>
 </defs>
 <g id="Capa_x0020_1">
  <metadata id="CorelCorpID_0Corel-Layer"/>
  <g id="_2165458463568">
   <path class="fil0" d="M0.62 3.75l14.77 0 0 8.63c0,1.63 0.04,1.38 -1.36,1.43l-12.26 0c-1.29,-0.05 -1.15,0.17 -1.15,-1.11l0 -8.95zm0 -0.59c-0.05,-1.07 0.34,-0.97 1.29,-0.97l12.12 0c1.08,0 1.36,0 1.36,0.97 -4.93,0 -9.85,0 -14.77,0zm-0.59 0.03l0 9.86c0,1.05 0.29,1.34 1.44,1.34l12.99 0c1.22,0 1.48,-0.27 1.51,-1.2l0 -9.95c-0.03,-1.51 -0.09,-1.6 -1.68,-1.63l-12.81 0c-1.34,0 -1.45,0.12 -1.45,1.58zm3.21 -0.22c0.19,0.01 0.34,0.02 0.34,-0.18 0.01,-0.29 -0.15,-0.43 -0.32,-0.43 -0.18,0 -0.35,0.14 -0.34,0.43 0.01,0.2 0.16,0.17 0.32,0.18zm-1.01 0c0.19,0.01 0.34,0.02 0.34,-0.18 0.01,-0.29 -0.15,-0.43 -0.32,-0.43 -0.18,0 -0.35,0.14 -0.34,0.43 0.01,0.2 0.16,0.17 0.32,0.18zm-1.02 0c0.19,0.01 0.33,0.02 0.34,-0.18 0,-0.29 -0.15,-0.43 -0.33,-0.43 -0.17,0 -0.34,0.14 -0.33,0.43 0,0.2 0.15,0.17 0.32,0.18z"/>
   <path class="fil1" d="M14.7 12.95c0.15,-0.01 0.41,0 0.4,0.3 -0.01,0.3 -0.27,0.29 -0.4,0.29 -0.14,0 -0.39,0.01 -0.39,-0.3 0,-0.31 0.24,-0.29 0.39,-0.29zm-5.83 -2.37c1.2,0.03 2.56,0 3.76,0 0.58,-0.01 0.64,0.11 0.64,0.31 0,0.2 -0.06,0.3 -0.65,0.29l-3.75 0c-0.51,0.02 -0.62,-0.08 -0.6,-0.3 0.01,-0.23 0.05,-0.31 0.6,-0.3zm4.04 -1.1c0.15,0 0.41,0.01 0.4,0.31 -0.01,0.29 -0.27,0.29 -0.4,0.29 -0.14,0 -0.39,0 -0.39,-0.31 0,-0.31 0.23,-0.29 0.39,-0.29zm-4.13 -0.02c0.94,0.01 1.99,0 2.92,0 0.55,0 0.51,0.14 0.51,0.31 0.01,0.17 0.05,0.29 -0.52,0.29l-2.91 0c-0.51,0 -0.49,-0.13 -0.48,-0.3 0.01,-0.17 -0.02,-0.3 0.48,-0.3zm-0.83 -1.07c0.46,0.01 0.93,0 1.39,0 0.28,0 0.28,0.14 0.29,0.31 0,0.17 -0.04,0.29 -0.32,0.29l-1.36 0c-0.25,0 -0.28,-0.13 -0.27,-0.3 0.01,-0.17 0.02,-0.3 0.27,-0.3zm2.37 0.02c0.15,-0.01 0.41,0.01 0.4,0.3 -0.01,0.3 -0.27,0.29 -0.4,0.29 -0.14,0 -0.39,0.01 -0.39,-0.3 0.01,-0.31 0.24,-0.29 0.39,-0.29zm-3.47 -1.06c1.19,0.03 2.56,0 3.76,0 0.58,-0.01 0.64,0.11 0.64,0.31 0,0.2 -0.06,0.3 -0.65,0.29l-3.75 0c-0.51,0.02 -0.62,-0.08 -0.61,-0.31 0.02,-0.22 0.06,-0.3 0.61,-0.29zm4.04 -1.03c0.15,0 0.41,0.01 0.4,0.31 -0.01,0.3 -0.27,0.29 -0.4,0.29 -0.15,0 -0.39,0 -0.39,-0.3 0,-0.31 0.23,-0.3 0.39,-0.3zm-4.13 -0.01c0.94,0 1.99,0 2.92,0 0.55,0 0.51,0.14 0.51,0.31 0,0.17 0.05,0.28 -0.52,0.29l-2.91 0c-0.51,0 -0.5,-0.14 -0.48,-0.31 0.01,-0.17 -0.02,-0.29 0.48,-0.29zm-0.83 -1.04c0.46,0 0.93,0 1.39,0 0.28,-0.01 0.28,0.14 0.28,0.31 0.01,0.16 -0.03,0.28 -0.31,0.29l-1.36 0c-0.25,0 -0.28,-0.14 -0.27,-0.31 0.01,-0.17 0.02,-0.3 0.27,-0.29zm2.37 0c0.15,0 0.41,0.01 0.4,0.3 -0.01,0.3 -0.27,0.3 -0.4,0.3 -0.14,0 -0.39,0 -0.39,-0.31 0,-0.31 0.24,-0.29 0.39,-0.29zm6.04 6.77l-9.66 0.02 0 -7.25 9.65 0 0.01 7.23zm-12.67 -7.23l2.42 0 0.01 7.26 -2.43 -0.01 0 -7.25zm13.24 7.25l-0.01 -7.27c0.01,-0.57 0.01,-0.57 -0.57,-0.57l-12.66 0c-0.58,0 -0.58,0 -0.58,0.59l-0.02 7.25c0.02,0.52 0.05,0.58 0.63,0.61l12.63 -0.03c0.58,0 0.58,0 0.58,-0.58zm-12.72 -6.79c0.46,0 0.93,0 1.4,0 0.27,-0.01 0.28,0.14 0.28,0.31 0,0.16 -0.04,0.28 -0.32,0.29l-1.36 0c-0.25,0 -0.27,-0.14 -0.27,-0.31 0.01,-0.17 0.02,-0.3 0.27,-0.29zm0 1.04c0.46,0.01 0.93,0 1.4,0 0.27,0 0.28,0.14 0.28,0.31 0,0.17 -0.04,0.29 -0.32,0.29l-1.36 0c-0.25,0 -0.27,-0.13 -0.27,-0.3 0.01,-0.17 0.02,-0.3 0.27,-0.3zm0 1.04c0.46,0.01 0.93,0 1.4,0 0.27,0 0.28,0.14 0.28,0.31 0,0.17 -0.04,0.28 -0.32,0.29l-1.36 0c-0.25,0 -0.27,-0.13 -0.27,-0.3 0.01,-0.17 0.02,-0.3 0.27,-0.3zm0 1.05c0.46,0 0.93,0 1.4,0 0.27,-0.01 0.28,0.14 0.28,0.31 0,0.17 -0.04,0.28 -0.32,0.29l-1.36 0c-0.25,0 -0.27,-0.14 -0.27,-0.31 0.01,-0.17 0.02,-0.3 0.27,-0.29zm0 1.07c0.46,0.01 0.93,0 1.4,0 0.27,0 0.28,0.14 0.28,0.31 0,0.17 -0.04,0.28 -0.32,0.29l-1.36 0c-0.25,0 -0.27,-0.13 -0.27,-0.3 0.01,-0.17 0.02,-0.3 0.27,-0.3zm0 1.11c0.46,0.01 0.93,0 1.4,0 0.27,0 0.28,0.14 0.28,0.31 0,0.17 -0.04,0.28 -0.32,0.29l-1.36 0c-0.25,0 -0.27,-0.13 -0.27,-0.3 0.01,-0.17 0.02,-0.3 0.27,-0.3zm8.38 2.35c0.94,0.01 1.99,0 2.93,0 0.54,0 0.5,0.14 0.5,0.31 0.01,0.17 0.05,0.28 -0.52,0.29l-2.91 0c-0.51,0 -0.49,-0.13 -0.48,-0.3 0.01,-0.17 -0.02,-0.3 0.48,-0.3z"/>
  </g>
 </g>
</svg>
