<?xml version="1.0" encoding="UTF-8"?>
<!DOCTYPE svg PUBLIC "-//W3C//DTD SVG 1.0//EN" "http://www.w3.org/TR/2001/REC-SVG-20010904/DTD/svg10.dtd">
<!-- Creator: CorelDRAW 2019 (64-Bit) -->
<svg xmlns="http://www.w3.org/2000/svg" xml:space="preserve" width="16px" height="16px" version="1.0" style="shape-rendering:geometricPrecision; text-rendering:geometricPrecision; image-rendering:optimizeQuality; fill-rule:evenodd; clip-rule:evenodd"
viewBox="0 0 16 16"
 xmlns:xlink="http://www.w3.org/1999/xlink">
 <defs>
  <style type="text/css">
   <![CDATA[
    .fil0 {fill:#147935}
    .fil2 {fill:#556969}
    .fil1 {fill:#FAC924}
   ]]>
  </style>
 </defs>
 <g id="Capa_x0020_1">
  <metadata id="CorelCorpID_0Corel-Layer"/>
  <g id="_2417838041616">
   <path class="fil0" d="M15.87 8.52c-0.95,4.21 -4.59,6.59 -8.83,5.93 -5.11,-0.65 -7.84,-8.04 -4.46,-12.1 0.2,-0.24 0.37,-0.43 0.75,-0.85 -0.71,0.39 -1.93,1.7 -2.63,3.15 -1.72,3.95 0.06,9.45 4.24,10.82 0.27,0.09 0.45,0.19 0.72,0.26 4.89,1.12 10.01,-1.97 10.21,-7.21z"/>
   <path class="fil1" d="M2.44 4.1c-0.07,0.25 -0.2,0.48 -0.28,0.73 -0.12,0.36 -0.3,1.3 -0.29,1.7 0.25,-1.49 1.23,-3.01 2.42,-3.92 1.82,-1.38 4.43,-1.61 6.48,-0.64 0.24,0.12 0.48,0.25 0.75,0.41 3.37,2 3.72,7.38 0.87,10.05 0.43,-0.18 0.78,-0.55 1.12,-0.96 1.04,-1.23 1.75,-2.75 1.79,-4.5 0.03,-2.21 -1.13,-4.66 -3.02,-5.8 -1.74,-1.04 -3.2,-1.19 -5.07,-0.94 -1.87,0.26 -4.34,2.35 -4.77,3.87z"/>
   <path class="fil2" d="M7.03 8.59c0.14,0.34 0.92,0.51 1.35,0.96 0.06,0.55 0.07,1.09 -0.03,1.64 -0.17,0.96 -0.73,1.82 -1.71,1.82 -0.98,0 -1.42,-1.1 -1.54,-1.89 -0.09,-0.62 -0.04,-1.34 -0.02,-1.93 0.56,-0.28 0.96,-0.52 0.95,-1.25 -0.01,-0.61 -0.47,-1.15 -1.21,-1.17 -0.62,-0.01 -1.11,0.49 -1.19,1.09 -0.11,0.7 0.39,1.1 0.96,1.31 0,0.2 -0.03,1.87 0.02,1.98 0.19,1.18 0.72,2.29 2.05,2.32 1.24,0.03 1.98,-1.04 2.16,-2.17 0.08,-0.5 -0.03,-1.48 0.03,-1.75 0.3,-0.38 1.49,-0.82 1.59,-1.24 0.09,-0.14 0.09,-0.1 0.23,-0.35 0.42,-0.73 0.88,-1.89 0.46,-2.68 -0.36,-0.68 -0.73,-0.65 -1.28,-0.71 -0.14,-0.02 0,-0.15 -0.36,-0.18 -0.2,-0.01 -0.33,0.11 -0.32,0.32 0.01,0.21 0.16,0.29 0.34,0.3 0.12,0.01 0.22,-0.07 0.3,-0.07 1.03,0.02 1.19,0.75 0.92,1.73 -0.18,0.65 -0.18,0.62 -0.44,1.14 -0.09,0.18 -0.09,0.21 -0.15,0.21 -0.25,-0.02 -1.08,0.89 -1.47,0.88 -0.4,0 -0.99,-0.57 -1.26,-0.62 -0.05,-0.01 -0.11,-0.09 -0.25,-0.26 -0.28,-0.35 -0.51,-0.83 -0.63,-1.32 -0.06,-0.26 -0.09,-0.53 -0.08,-0.77 0.03,-0.67 0.34,-0.99 1.01,-0.99 0.13,0.01 0.35,0.06 0.41,0.05 0.17,-0.03 0.3,-0.14 0.29,-0.32 -0.02,-0.18 -0.15,-0.31 -0.37,-0.31 -0.17,0.01 -0.16,0.1 -0.33,0.13 -0.55,0.12 -0.91,0.2 -1.21,0.55 -0.61,0.71 -0.04,2.41 0.49,3.16 0.08,0.12 0.29,0.21 0.29,0.39z"/>
  </g>
 </g>
</svg>
