<?xml version="1.0" encoding="UTF-8"?>
<!DOCTYPE svg PUBLIC "-//W3C//DTD SVG 1.0//EN" "http://www.w3.org/TR/2001/REC-SVG-20010904/DTD/svg10.dtd">
<!-- Creator: CorelDRAW 2019 (64-Bit) -->
<svg xmlns="http://www.w3.org/2000/svg" xml:space="preserve" width="11px" height="16px" version="1.0" style="shape-rendering:geometricPrecision; text-rendering:geometricPrecision; image-rendering:optimizeQuality; fill-rule:evenodd; clip-rule:evenodd"
viewBox="0 0 11 15.56"
 xmlns:xlink="http://www.w3.org/1999/xlink">
 <defs>
  <style type="text/css">
   <![CDATA[
    .fil2 {fill:#221F20}
    .fil0 {fill:#B08057}
    .fil1 {fill:#FCFDFD}
   ]]>
  </style>
 </defs>
 <g id="Capa_x0020_1">
  <metadata id="CorelCorpID_0Corel-Layer"/>
  <path class="fil0" d="M6.19 1.86c0.18,-0.06 0.33,-0.18 0.27,-0.37 -0.05,-0.17 -0.29,-0.28 -0.53,-0.28 -0.33,0 -0.55,0.15 -0.57,0.32 -0.01,0.12 0.07,0.25 0.28,0.33l0 0.11c0,0 0.07,0.03 0.08,0.03 0.08,0.05 0.19,0.09 0.25,0.21 0.15,0.29 -0.27,0.18 -0.31,0.17 0.05,1.68 0.07,3.37 0.12,5.05 0.01,0.2 0.02,0.39 0.05,0.4l0.06 0c0.03,-0.03 0.03,-0.12 0.03,-0.17l0.27 -5.8z"/>
  <path class="fil1" d="M6.44 6.54c-0.26,-0.26 -1.03,-0.29 -0.76,-0.57 0.16,-0.17 0.73,-0.29 0.85,-0.57 0.28,-0.61 -1.12,-0.67 -1.02,-1.04 0.04,-0.12 0.29,-0.21 0.44,-0.27 0.21,-0.09 0.87,-0.35 0.65,-0.73 -0.14,-0.26 -0.6,-0.37 -0.96,-0.47 -0.26,-0.07 -0.97,-0.24 -0.85,-0.56 0.13,-0.34 0.88,0.06 1.13,0 0.01,-0.18 -0.26,-0.3 -0.45,-0.34 -0.36,-0.08 -1.06,-0.13 -1.04,0.42 0.02,0.65 0.94,0.74 1.48,0.85 0.18,0.03 0.51,0.11 0.34,0.34 -0.15,0.19 -0.8,0.32 -1,0.56 -0.14,0.17 -0.13,0.39 0.03,0.54 0.12,0.12 0.32,0.19 0.51,0.26 0.16,0.06 0.48,0.13 0.51,0.28 0.05,0.27 -0.65,0.38 -0.89,0.66 -0.17,0.2 0.07,0.38 0.22,0.45 0.17,0.07 0.45,0.09 0.54,0.23 0.09,0.27 -0.73,0.45 -0.77,0.64 0.19,0.03 0.48,-0.14 0.62,-0.23 0.15,-0.08 0.43,-0.25 0.42,-0.45z"/>
  <path class="fil2" d="M5.89 7.83l-0.08 -0.03 -0.03 -0.59 0.16 -0.08 -0.02 0.53c0,0.07 0,0.1 -0.03,0.17zm0.31 -4.29c0.02,-0.01 0.02,-0.04 0.03,-0.05 0,-0.01 0,-0.02 -0.03,-0.04 0,0.03 0,0.06 0,0.09zm-0.43 3.34l-0.01 -0.41c0.08,0.02 0.15,0.04 0.21,0.08l-0.01 0.22 -0.19 0.11zm0.3 -0.29l0.03 0.03 -0.02 0.06c-0.02,0.03 0.03,0.01 -0.04,0.03l0 -0.14 0.03 0.02zm-0.32 -0.58c0.06,-0.06 0.16,-0.11 0.25,-0.14l-0.01 0.35c-0.06,0.01 -0.12,-0.02 -0.17,-0.05 -0.09,-0.04 -0.07,-0.05 -0.07,-0.16zm-0.03 -0.99l0.32 0.11 -0.02 0.33 -0.28 0.13 -0.02 -0.57zm0.38 0.38l0.01 -0.24 0.12 0.06c0,0.08 0,0.07 -0.04,0.12 -0.02,0.03 -0.05,0.04 -0.09,0.06zm-0.04 -0.71c-0.11,-0.03 -0.26,-0.11 -0.35,-0.16l-0.01 -0.26c0.13,-0.04 0.24,-0.11 0.38,-0.15l-0.02 0.57zm-0.49 -0.28l0.05 -0.08 0.01 0.14c-0.02,-0.02 -0.04,-0.04 -0.06,-0.06zm0.12 -0.61l-0.01 -0.51 0.44 0.09 -0.01 0.23 -0.05 0.04c-0.02,0.01 -0.03,0.01 -0.05,0.02l-0.32 0.13zm-0.11 -1.42l0.01 0.42c-0.19,-0.03 -0.65,-0.21 -0.72,-0.32 -0.18,-0.33 0.61,-0.2 0.71,-0.1zm0.86 4.16c0.01,0.2 -0.27,0.37 -0.42,0.45 -0.14,0.09 -0.43,0.26 -0.62,0.23 0.04,-0.19 0.86,-0.37 0.77,-0.64 -0.09,-0.14 -0.37,-0.16 -0.54,-0.23 -0.15,-0.07 -0.39,-0.25 -0.22,-0.45 0.24,-0.28 0.94,-0.39 0.89,-0.66 -0.03,-0.15 -0.35,-0.22 -0.51,-0.28 -0.19,-0.07 -0.39,-0.14 -0.51,-0.26 -0.16,-0.15 -0.17,-0.37 -0.03,-0.54 0.2,-0.24 0.85,-0.37 1,-0.56 0.17,-0.23 -0.16,-0.31 -0.34,-0.34 -0.54,-0.11 -1.46,-0.2 -1.48,-0.85 -0.02,-0.55 0.68,-0.5 1.04,-0.42 0.16,0.04 0.46,0.15 0.45,0.34 -0.25,0.06 -1,-0.34 -1.13,0 -0.12,0.32 0.59,0.49 0.85,0.56 0.36,0.1 0.82,0.21 0.96,0.47 0.22,0.38 -0.44,0.64 -0.65,0.73 -0.15,0.06 -0.4,0.15 -0.44,0.27 -0.1,0.37 1.3,0.43 1.02,1.04 -0.12,0.28 -0.69,0.4 -0.85,0.57 -0.27,0.28 0.5,0.31 0.76,0.57zm-0.98 -4.45c0,0.02 0.02,0.05 0.07,0.05 0.06,0.01 0.09,-0.02 0.1,-0.04 -0.01,-0.02 -0.05,-0.04 -0.08,-0.04 -0.03,0 -0.08,0.01 -0.09,0.03zm0.19 -0.15c0.24,0.04 0.29,0.04 0.53,0l-0.04 1.01 -0.47 -0.13 -0.01 -0.44c0.04,0.01 0.46,0.12 0.31,-0.17 -0.05,-0.11 -0.15,-0.16 -0.23,-0.2 -0.02,-0.01 -0.1,-0.04 -0.1,-0.04l0.01 -0.03zm0.42 -0.05c-0.14,0.02 -0.17,0.02 -0.31,0 -0.65,-0.16 -0.43,-0.69 0.17,-0.68 0.24,0 0.48,0.11 0.53,0.28 0.07,0.22 -0.2,0.36 -0.39,0.4zm-0.48 0.02l-0.01 0.04c-0.23,-0.08 -0.67,-0.11 -0.89,-0.03 -0.25,0.09 -0.39,0.3 -0.31,0.63 0.06,0.26 0.25,0.41 0.47,0.51 0.34,0.17 0.6,0.16 0.75,0.22l0.02 0.57c-0.59,0.2 -0.86,0.82 0.03,1.14l0.01 0.63c-0.16,0.12 -0.39,0.18 -0.38,0.43 0.01,0.23 0.21,0.33 0.41,0.4l0.01 0.47c-0.16,0.09 -0.4,0.16 -0.37,0.36 0.13,0.05 0.24,0.01 0.37,-0.04l0.02 0.65 0.26 0.01 0.05 -0.82c0.16,-0.12 0.38,-0.23 0.47,-0.41 0.1,-0.2 -0.14,-0.3 -0.27,-0.35l-0.17 -0.07 0.02 -0.42c0.23,-0.13 0.51,-0.23 0.56,-0.52 0.05,-0.36 -0.38,-0.49 -0.51,-0.59l0.03 -0.63c0.11,-0.09 0.32,-0.14 0.47,-0.34 0.17,-0.24 0.07,-0.42 -0.09,-0.57 -0.11,-0.11 -0.21,-0.12 -0.33,-0.2l0.05 -1.08c0.17,-0.05 0.38,-0.27 0.24,-0.51 -0.3,-0.49 -1.46,-0.2 -1.17,0.32 0.09,0.15 0.26,0.19 0.26,0.2z"/>
 </g>
</svg>
