<?xml version="1.0" encoding="UTF-8"?>
<!DOCTYPE svg PUBLIC "-//W3C//DTD SVG 1.0//EN" "http://www.w3.org/TR/2001/REC-SVG-20010904/DTD/svg10.dtd">
<!-- Creator: CorelDRAW 2019 (64-Bit) -->
<svg xmlns="http://www.w3.org/2000/svg" xml:space="preserve" width="16px" height="16px" version="1.0" style="shape-rendering:geometricPrecision; text-rendering:geometricPrecision; image-rendering:optimizeQuality; fill-rule:evenodd; clip-rule:evenodd"
viewBox="0 0 16 16"
 xmlns:xlink="http://www.w3.org/1999/xlink">
 <defs>
  <style type="text/css">
   <![CDATA[
    .fil0 {fill:#147935}
    .fil1 {fill:#FAC924}
   ]]>
  </style>
 </defs>
 <g id="Capa_x0020_1">
  <metadata id="CorelCorpID_0Corel-Layer"/>
  <g id="_1865746179184">
   <path class="fil0" d="M7.95 6.58l2.48 0.01c0.42,0.01 0.87,-0.04 0.88,0.24 0.01,0.27 -0.23,0.2 -0.85,0.23 -0.82,0.03 -1.68,0.01 -2.5,0 -0.21,-0.01 -0.8,0.02 -0.79,-0.24 0.01,-0.27 0.58,-0.24 0.78,-0.24zm-2.55 0.4c0.33,-0.26 0.52,-0.51 0.69,-0.67 0.16,-0.14 0.32,-0.29 0.47,-0.15 0.15,0.15 -0.03,0.31 -0.17,0.48 -0.34,0.42 -0.98,0.9 -0.99,0.9 -0.05,0.01 -0.34,-0.14 -0.53,-0.36 -0.12,-0.15 -0.33,-0.31 -0.16,-0.49 0.17,-0.18 0.37,0.03 0.49,0.15 0.05,0.05 0.11,0.1 0.2,0.14zm0 -2.11c0.31,-0.24 0.53,-0.49 0.78,-0.76 0.15,-0.16 0.31,-0.22 0.41,-0.11 0.1,0.12 0.06,0.19 -0.07,0.38 -0.28,0.4 -0.97,0.99 -1.12,1.08 -0.18,-0.07 -0.47,-0.35 -0.59,-0.49 -0.1,-0.11 -0.18,-0.22 -0.07,-0.36 0.11,-0.14 0.24,-0.05 0.39,0.04 0.13,0.09 0.24,0.21 0.27,0.22zm-2.04 8.95c0.28,0.04 0.65,0.05 1.03,0.05 0.72,0 4.94,-0.01 4.95,-0.02 -0.02,-0.04 -0.04,-0.09 -0.07,-0.13 -0.05,-0.01 -0.1,-0.01 -0.18,-0.03 -0.54,-0.12 -0.53,-0.64 -0.53,-1.26 0,-0.56 0.07,-1.02 0.57,-1.07 0.02,0 0.05,0.01 0.07,0.01 0.06,0.01 0.07,0.01 0.09,-0.03 0.04,-0.07 0.05,-0.1 0.07,-0.2 -0.01,-0.05 0,-0.05 -0.05,-0.09 -0.02,-0.01 -0.05,-0.02 -0.06,-0.04 -0.28,-0.62 0.04,-0.78 0.39,-1.14 0.31,-0.32 0.59,-0.73 1.17,-0.58 0.14,0.04 0.09,0.22 0.29,0.16 0.34,-0.11 0.16,-0.16 0.21,-0.29 0.08,-0.2 0.16,-0.44 0.57,-0.48 0.34,-0.03 0.85,0.04 1.22,0.04 0.13,0 0.25,0.09 0.26,0.05 0.01,-0.01 0,-0.13 0,-0.19 0.06,-1.38 0.14,-6.82 -0.07,-7.64 -0.05,-0.32 -0.15,-0.4 -0.51,-0.4l-1.52 -0.01c-0.03,0.63 0.23,2.06 -0.43,2.35 -0.21,0.09 -5.13,0.1 -5.34,0 -0.54,-0.26 -0.4,-1.81 -0.37,-2.39 -0.29,-0.04 -1.83,0.02 -2.01,0.08 -0.54,0.19 -0.49,0.83 -0.49,1.51l-0.01 9.87c0,0.58 -0.1,1.17 0.17,1.53 0.14,0.18 0.35,0.31 0.58,0.34zm7.16 -8.87c0.43,0.01 0.78,0.02 0.78,-0.2 0.01,-0.26 -0.38,-0.26 -0.8,-0.26 -0.54,0.02 -1.83,0 -2.63,0.01 -0.29,0 -0.73,-0.05 -0.73,0.22 -0.01,0.27 0.47,0.21 0.72,0.22 0.88,0.03 1.79,-0.01 2.66,0.01zm-1.26 -3.63c0,-0.2 0.13,-0.26 0.3,-0.25 0.19,0 0.23,0.09 0.24,0.23 0.01,0.15 -0.11,0.23 -0.24,0.23 -0.16,0 -0.3,-0.05 -0.3,-0.21zm-1.37 -0.02c0.01,-0.18 0.14,-0.25 0.27,-0.25 0.11,0 0.29,0.03 0.29,0.24 0.01,0.16 -0.13,0.25 -0.28,0.24 -0.13,0 -0.29,-0.06 -0.28,-0.23zm-1.1 0.22c-0.14,-0.01 -0.27,-0.07 -0.25,-0.24 0.01,-0.17 0.1,-0.22 0.27,-0.23 0.16,-0.01 0.28,0.05 0.29,0.23 0.01,0.19 -0.17,0.25 -0.31,0.24zm4.03 0.68c-0.01,-0.42 0.07,-1.31 0,-1.75 -0.04,-0.22 -0.06,-0.26 -0.27,-0.29 -0.78,-0.14 -3.64,-0.14 -4.62,-0.05 -0.23,0.03 -0.32,-0.01 -0.35,0.19 -0.08,0.41 -0.08,1.42 -0.02,1.9 0.03,0.23 0.02,0.24 0.25,0.28 0.83,0.16 3.53,0.08 4.55,0.04 0.22,-0.01 0.46,-0.07 0.46,-0.32z"/>
   <path class="fil1" d="M13.44 11.66c0.47,0.5 0.42,1.42 -0.12,1.85 -0.51,0.4 -1.34,0.43 -1.79,-0.03 -0.51,-0.52 -0.5,-1.31 -0.03,-1.83 0.52,-0.59 1.42,-0.55 1.94,0.01zm-2.37 -1.67c-0.19,-0.04 -0.25,0 -0.3,-0.24 -0.46,-0.14 -0.54,0.14 -0.8,0.39 -0.17,0.16 -0.57,0.42 -0.29,0.73 0.24,0.23 0.16,0.28 0.09,0.61 -0.06,0.15 -0.09,0.24 -0.22,0.26l-0.19 0.01c-0.17,0.02 -0.24,0.08 -0.34,0.15 -0.2,1.86 0.34,1.22 0.64,1.5 0.45,0.54 -0.05,0.58 -0.05,1.07 0.12,0.23 0.66,0.77 0.89,0.88 0.51,-0.03 0.33,-0.33 0.79,-0.22 0.48,0.11 0.23,0.29 0.43,0.66 0.12,0.23 0.6,0.15 0.92,0.15 0.36,0.01 0.61,0.04 0.56,-0.36 0.06,-0.36 0.09,-0.36 0.4,-0.49 0.55,0.03 0.46,0.3 0.83,0.25l0.22 -0.15c0.41,-0.34 0.78,-0.61 0.61,-0.99 -0.07,-0.15 -0.04,-0.07 -0.11,-0.17 -0.1,-0.14 -0.04,-0.03 -0.12,-0.17 0.06,-0.17 0.12,-0.43 0.27,-0.5 0.1,-0.05 0.21,-0.03 0.34,-0.08 0.29,-0.09 0.13,-0.04 0.21,-0.14 0.17,-0.22 0.1,-0.93 0,-1.23 -0.22,-0.16 -0.29,-0.06 -0.5,-0.16 -0.24,-0.12 -0.25,-0.42 -0.28,-0.65l0.11 -0.17c0.49,-0.33 -0.53,-1.11 -0.75,-1.23 -0.76,0.04 -0.18,0.51 -1.14,0.04 -0.03,-0.28 -0.05,-0.45 -0.21,-0.61 -0.3,-0.06 -1.15,-0.11 -1.33,0.1 -0.32,0.38 0.25,0.49 -0.68,0.76zm-10.02 5.88c0.25,-0.03 0.79,-1.12 0.84,-1.52l-1.73 0c0.02,0.17 0.53,1.56 0.89,1.52zm-0.98 -1.99c0.33,0.1 1.57,0.09 1.92,0.01 0.08,-0.9 0.07,-6.99 0.01,-7.99l-1.95 0.03 0.02 7.95zm-0.01 -9.42c-0.03,0.34 0.01,0.64 -0.01,0.98 0.35,0.13 1.66,0.13 1.95,-0.02 0,-0.33 0.04,-0.66 0.01,-0.93 -0.03,-0.26 -0.12,-0.46 -0.42,-0.55 -0.17,-0.05 -0.42,-0.08 -0.62,-0.08 -0.2,0.01 -0.41,0.04 -0.58,0.1 -0.3,0.12 -0.31,0.23 -0.33,0.5z"/>
  </g>
 </g>
</svg>
