<?xml version="1.0" encoding="UTF-8"?>
<!DOCTYPE svg PUBLIC "-//W3C//DTD SVG 1.0//EN" "http://www.w3.org/TR/2001/REC-SVG-20010904/DTD/svg10.dtd">
<!-- Creator: CorelDRAW 2019 (64-Bit) -->
<svg xmlns="http://www.w3.org/2000/svg" xml:space="preserve" width="16px" height="16px" version="1.0" style="shape-rendering:geometricPrecision; text-rendering:geometricPrecision; image-rendering:optimizeQuality; fill-rule:evenodd; clip-rule:evenodd"
viewBox="0 0 16 16"
 xmlns:xlink="http://www.w3.org/1999/xlink">
 <defs>
  <style type="text/css">
   <![CDATA[
    .fil0 {fill:#167939}
    .fil1 {fill:#656565}
    .fil2 {fill:#FAC924}
   ]]>
  </style>
 </defs>
 <g id="Capa_x0020_1">
  <metadata id="CorelCorpID_0Corel-Layer"/>
  <g id="_1865763282624">
   <path class="fil0" d="M0.91 11.05c0.01,-0.88 -0.03,-5.8 0,-7.78 0.01,-1.12 0.19,-0.9 1.6,-0.93l11.62 0c0.2,0 0.73,-0.08 0.82,0.13 0.19,0.26 0.1,0.99 0.1,1.41l0 6.32c0,1.89 0.41,1.49 -2.9,1.49l-10.02 0c-0.83,0 -1.22,0.16 -1.22,-0.64zm14.97 0.65c0.11,-0.56 0.05,-6.14 0.05,-7.21 0,-1.17 0.23,-2.45 -0.61,-2.91 -0.41,-0.23 -1.02,-0.15 -1.53,-0.15 -1.26,0 -12.62,-0.05 -13,0.02 -0.5,0.09 -0.75,0.39 -0.75,0.93l0 9.09c0,0.56 0.04,0.87 0.59,1.1 0.45,0.19 2.48,0.1 3.15,0.1 2.17,0 4.34,0 6.51,0 1.08,0 2.16,0 3.25,0 0.74,0 2.1,0.25 2.34,-0.97zm-10.11 2.89l4.35 0c0.84,0 0.58,-0.47 0.25,-0.97 -0.4,-0.6 -0.45,-0.56 -1.27,-0.56 -0.57,0 -1.15,0 -1.73,0 -0.46,0 -1.29,-0.11 -1.59,0.15 -0.19,0.16 -0.49,0.55 -0.6,0.88 -0.17,0.47 0.28,0.5 0.59,0.5z"/>
   <path class="fil1" d="M5.31 4.12c0,1.6 0,3.21 0,4.82 0,1.2 0.06,1.17 1.13,1.17 0.71,0 1.5,0.04 2.2,0 0.02,-0.5 0.09,-0.53 -0.34,-0.53l-2.48 0c-0.02,-1.91 -0.01,-3.87 -0.02,-5.78l3.53 0 0.01 2.19c0,0.68 0.01,0.61 0.46,0.49 0.05,-0.54 0.01,-1.37 0.01,-1.94 0,-0.7 0.09,-1.29 -0.62,-1.29l-3.25 0c-0.52,0 -0.63,0.32 -0.63,0.87zm0.99 0.86c0.29,0.09 0.82,0.04 1.16,0.04 0.38,0 0.95,0.15 0.72,-0.35l-1.83 -0.02c-0.1,0.21 -0.11,0.13 -0.05,0.33zm-0.04 0.73c0.06,0.15 0.21,0.19 0.42,0.2 0.51,0.01 1.16,0.01 1.67,-0.01 0.15,0 0.51,0.04 0.49,-0.2 -0.01,-0.28 -0.34,-0.19 -0.62,-0.19l-1.31 0c-0.32,0 -0.54,-0.08 -0.65,0.2z"/>
   <path class="fil2" d="M10.14 10.72l-0.01 -1.6c-0.12,0.08 -0.06,0.08 -0.12,0.2 -0.12,0.05 -0.22,0.07 -0.27,0.04 -0.07,-0.03 -0.04,-0.13 -0.22,-0.13 -0.18,0.01 -0.12,0.11 -0.23,0.13 -0.05,0 -0.17,-0.01 -0.24,-0.05l-0.09 -0.19 -0.01 1.61 0.61 -0.43 0.58 0.42zm-0.82 -3.16c0.26,-0.16 0.53,0 0.64,0.22 0.2,0.45 -0.2,0.9 -0.59,0.74 -0.36,-0.15 -0.44,-0.73 -0.05,-0.96zm-0.75 -0.18c0.02,0.03 0.06,0.11 0.08,0.15 0.05,0.07 0.03,0.07 0.01,0.13 -0.06,0.16 0.01,0.1 -0.24,0.2 -0.02,0.06 -0.01,0.19 -0.01,0.27l0.2 0.1 0.06 0.2 -0.13 0.19c0.06,0.12 0.1,0.14 0.15,0.23 0.19,-0.06 0.19,-0.08 0.24,-0.03l0.11 0.09c0.01,0.02 0.01,0.2 0.01,0.24 0.04,0.01 0.08,0.04 0.11,0.05 0.04,0.02 0.08,0.03 0.12,0.04 0.03,-0.03 0.07,-0.08 0.1,-0.12 0.06,-0.08 0.02,-0.06 0.12,-0.05 0.08,0 0.1,-0.03 0.14,0.04 0.03,0.05 0.07,0.1 0.1,0.15l0.24 -0.09c0,-0.05 0.01,-0.11 0.01,-0.17 0,-0.09 0.03,-0.08 0.1,-0.13 0.08,-0.06 0.04,-0.06 0.13,-0.03 0.04,0.02 0.09,0.03 0.14,0.05 0.02,-0.04 0.05,-0.07 0.07,-0.11 0.03,-0.04 0.05,-0.08 0.08,-0.11 -0.13,-0.27 -0.14,-0.13 -0.08,-0.31 0.03,-0.12 -0.01,-0.08 0.23,-0.17 0,-0.09 0.01,-0.18 0,-0.28 -0.06,-0.02 -0.13,-0.06 -0.19,-0.08l-0.06 -0.21 0.12 -0.19c-0.02,-0.03 -0.12,-0.22 -0.15,-0.22 -0.06,0 -0.17,0.07 -0.21,0.04 -0.03,-0.02 -0.09,-0.09 -0.14,-0.11l-0.01 -0.24c-0.05,-0.03 -0.17,-0.09 -0.23,-0.09 -0.17,0.22 -0.11,0.17 -0.23,0.17 -0.1,0 -0.08,0.03 -0.14,-0.06 -0.02,-0.03 -0.07,-0.11 -0.09,-0.13l-0.23 0.08c-0.01,0.06 -0.01,0.12 -0.01,0.18 -0.01,0.09 -0.03,0.07 -0.09,0.12 -0.1,0.08 -0.03,0.07 -0.27,-0.01 -0.06,0.05 -0.12,0.16 -0.16,0.22z"/>
  </g>
 </g>
</svg>
