<?xml version="1.0" encoding="UTF-8"?>
<!DOCTYPE svg PUBLIC "-//W3C//DTD SVG 1.0//EN" "http://www.w3.org/TR/2001/REC-SVG-20010904/DTD/svg10.dtd">
<!-- Creator: CorelDRAW 2019 (64-Bit) -->
<svg xmlns="http://www.w3.org/2000/svg" xml:space="preserve" width="16px" height="16px" version="1.0" style="shape-rendering:geometricPrecision; text-rendering:geometricPrecision; image-rendering:optimizeQuality; fill-rule:evenodd; clip-rule:evenodd"
viewBox="0 0 16 16"
 xmlns:xlink="http://www.w3.org/1999/xlink">
 <defs>
  <style type="text/css">
   <![CDATA[
    .fil0 {fill:#147935}
    .fil1 {fill:#FAC924}
   ]]>
  </style>
 </defs>
 <g id="Capa_x0020_1">
  <metadata id="CorelCorpID_0Corel-Layer"/>
  <g id="_1865390747152">
   <path class="fil0" d="M1.4 8.26c-0.11,0 -0.4,0.14 -0.51,0.2 -1.01,0.57 -2.56,3.15 5.22,1.62 1.49,-0.29 6.31,-1.57 7.04,-2.75 -0.14,-0.22 -0.21,-0.24 -0.45,-0.33 0.08,-0.56 0.71,-0.46 1.08,-0.8 -0.01,-0.17 -0.06,-0.23 -0.12,-0.33 -0.46,-0.04 -0.74,-0.08 -1.2,0.09 -0.08,0.2 -0.05,0.16 -0.02,0.4 0.04,0.29 0.1,0.21 -0.07,0.36 -0.19,-0.07 -0.06,0.02 -0.3,-0.53 -0.57,-1.55 -0.38,-1.38 -1.01,-1.54 -1.26,-0.31 -4.95,-0.3 -6.2,0.01 -0.51,0.13 -0.44,0.2 -0.74,0.92 -0.14,0.33 -0.27,0.65 -0.39,0.99 -0.05,0.14 -0.06,0.12 -0.21,0.15 -0.16,-0.29 0.09,-0.42 -0.05,-0.79 -0.24,-0.06 -0.78,-0.13 -1.22,-0.05l-0.13 0.32c0.7,0.4 1,0.31 1.11,0.74 -0.01,0.01 -0.03,0.01 -0.03,0.03 -0.51,0.2 -0.53,0.37 -0.69,1.05 -0.14,0.57 -0.11,1.11 -0.13,1.72 -0.37,0.05 -1.27,0.08 -1.52,-0.17 -0.29,-0.28 0.01,-0.78 0.28,-1.07 0.1,-0.11 0.26,-0.24 0.26,-0.24z"/>
   <path class="fil1" d="M0.5 11.11c2.34,0 6.89,-0.81 8.98,-1.44 1.36,-0.41 2.59,-0.93 3.6,-1.71 0.8,-0.6 1.59,-1.48 1.1,-2.63 -0.17,-0.4 -0.45,-0.57 -0.56,-0.81 0.87,0.12 1.66,0.73 2.06,1.38 0.76,1.24 -0.31,2.21 -0.45,2.51l-0.11 0.04 -0.04 0.12c-0.09,0.04 -0.3,0.23 -0.41,0.32 -0.17,0.12 -0.28,0.22 -0.44,0.31l-0.17 0.1c-0.6,0.47 -1.91,0.98 -2.78,1.29 -1.01,0.36 -2.17,0.59 -3.32,0.76 -2.15,0.31 -5.32,0.33 -7.47,-0.09 -0.11,-0.03 -0.27,-0.09 -0.37,-0.16 0.16,0.02 0.25,0.01 0.38,0.01z"/>
  </g>
 </g>
</svg>
