<?xml version="1.0" encoding="UTF-8"?>
<!DOCTYPE svg PUBLIC "-//W3C//DTD SVG 1.1//EN" "http://www.w3.org/Graphics/SVG/1.1/DTD/svg11.dtd">
<!-- Creator: CorelDRAW 2019 (64-Bit) -->
<svg xmlns="http://www.w3.org/2000/svg" xml:space="preserve" width="16px" height="16px" version="1.1" style="shape-rendering:geometricPrecision; text-rendering:geometricPrecision; image-rendering:optimizeQuality; fill-rule:evenodd; clip-rule:evenodd"
viewBox="0 0 16 16"
 xmlns:xlink="http://www.w3.org/1999/xlink">
 <defs>
  <style type="text/css">
   <![CDATA[
    .fil1 {fill:#318A4D}
    .fil2 {fill:#6D6F71}
    .fil0 {fill:#F9C924}
   ]]>
  </style>
 </defs>
 <g id="Capa_x0020_1">
  <metadata id="CorelCorpID_0Corel-Layer"/>
  <g id="_2417726234816">
   <path class="fil0" d="M1.79 13c0.42,0.38 0.89,0.67 1.54,1.08 2.94,1.4 5.32,0.09 5.54,0.07l0.07 1.8c1.05,-1.43 2.16,-2.86 3.11,-4.36l-5.23 -0.26 1.29 1.14c-0.79,0.56 -2.11,0.87 -3.08,0.76 -0.75,-0.09 -2.32,-0.7 -2.73,-1.35 0.77,0.38 1.61,0.75 2.47,0.8 0.53,0.03 0.86,-0.08 1.34,-0.21 -1.08,-0.16 -1.66,-0.33 -2.6,-0.84 -1.59,-0.86 -3,-2.87 -2.99,-4.63l0.01 -0.58c-1.05,2.04 -0.26,5.2 1.26,6.58z"/>
   <path class="fil1" d="M13.06 7.35c0.19,0.46 0.26,0.75 0.35,1.12 0.54,2.23 -0.43,4.83 -2.27,6.06 -0.32,0.21 -0.45,0.28 -0.75,0.37 1.04,0.11 2.73,-0.88 3.46,-1.5 2.06,-1.75 2.54,-4.21 1.47,-6.7 -0.24,-0.55 -0.58,-1.02 -0.9,-1.4 -0.61,-0.7 -1.05,-0.86 -1.23,-1.1l1.69 -0.96 -5.55 -0.38 2.28 4.35 0.36 -1.56c0.93,0.11 2.36,1.68 2.59,3.32 0.07,0.48 0.05,1.3 -0.18,1.65 -0.01,-0.7 -0.11,-1.32 -0.34,-1.89 -0.24,-0.57 -0.47,-0.98 -0.98,-1.38z"/>
   <path class="fil2" d="M7.58 1.21c0.07,-0.01 0.19,-0.02 0.24,-0.02l-0.24 0.09c-1.02,0.27 -2.64,1.89 -2.67,2.89 0.59,-1.02 2.21,-2.01 3.44,-2.3 1.44,-0.33 3.28,-0.26 4.32,0.38l0.61 0.37c-0.79,-0.91 -1.83,-1.57 -2.96,-2.04 -4.2,-1.76 -8.35,1.93 -8.25,5.07l-1.7 -0.86 2.36 4.64 2.82 -4.09 -1.72 0.57c0.04,-2.62 1.37,-4.23 3.75,-4.7z"/>
  </g>
 </g>
</svg>
