<?xml version="1.0" encoding="UTF-8"?>
<!DOCTYPE svg PUBLIC "-//W3C//DTD SVG 1.0//EN" "http://www.w3.org/TR/2001/REC-SVG-20010904/DTD/svg10.dtd">
<!-- Creator: CorelDRAW 2019 (64-Bit) -->
<svg xmlns="http://www.w3.org/2000/svg" xml:space="preserve" width="16px" height="16px" version="1.0" style="shape-rendering:geometricPrecision; text-rendering:geometricPrecision; image-rendering:optimizeQuality; fill-rule:evenodd; clip-rule:evenodd"
viewBox="0 0 16 16"
 xmlns:xlink="http://www.w3.org/1999/xlink">
 <defs>
  <style type="text/css">
   <![CDATA[
    .fil0 {fill:#147935}
    .fil1 {fill:#F8CA25}
   ]]>
  </style>
 </defs>
 <g id="Capa_x0020_1">
  <metadata id="CorelCorpID_0Corel-Layer"/>
  <g id="_1865691895760">
   <path class="fil0" d="M2.88 2.36c-3.17,2.43 -3.85,6.93 -1.27,9.98 0.57,0.05 0.81,-0.02 1.33,-0.13l0.85 -0.29c0.13,-0.05 -0.05,0.04 0.08,-0.03l0.6 -0.23c0.47,-0.24 1.07,-0.49 1.44,-0.85 -0.01,-0.84 0.01,-1.7 0.01,-2.54l-1.89 0 0 0.94c0,0.35 0.03,0.63 -0.05,0.92 -0.4,0.08 -0.86,0.16 -1.29,0.07 -0.63,-0.13 -1,-1.06 -1.02,-1.66 -0.05,-2.12 0.64,-4.24 2.83,-5.33 2.2,-1.08 4.27,-0.74 6.5,1.06 0.12,0.13 0.19,0.25 0.34,0.37l1.18 -1.05c-0.06,-0.08 -0.1,-0.11 -0.17,-0.21 -2.34,-2.74 -7.11,-2.82 -9.47,-1.02zm3.29 4.26l-0.01 4.04 1.82 -1.23 0.01 -2.81 -1.82 0zm3.9 -0.28l-0.01 -1.9 -1.87 0.01 0 4.84 5.9 -4.98 0.36 0.48 1.52 -2.84 -2.87 1.04 0.38 0.51 -3.41 2.84z"/>
   <path class="fil1" d="M6.16 11.43l-0.01 1.82 -0.25 0.01c0,-0.38 0,-1.32 0.01,-1.71 -1.06,0.6 -2.29,1.11 -3.76,1.41 0.41,0.43 0.8,0.74 1.35,1 2.33,1.09 5.31,1.39 7.61,-0.26 2.3,-1.65 3.37,-4.42 2.71,-7.48 -0.07,-0.28 -0.12,-0.46 -0.22,-0.67l-1.26 1.07c0.29,1.12 0.12,2.51 -0.34,3.57 -0.44,1.01 -0.88,1.35 -1.6,2.01 -0.1,0.1 -0.15,0.16 -0.34,0.16l0 -3.79 -1.87 1.59 0.01 3.06 -0.21 0.03 -0.01 -2.97 -1.82 1.15z"/>
  </g>
 </g>
</svg>
