<?xml version="1.0" encoding="UTF-8"?>
<!DOCTYPE svg PUBLIC "-//W3C//DTD SVG 1.0//EN" "http://www.w3.org/TR/2001/REC-SVG-20010904/DTD/svg10.dtd">
<!-- Creator: CorelDRAW 2019 (64-Bit) -->
<svg xmlns="http://www.w3.org/2000/svg" xml:space="preserve" width="16px" height="16px" version="1.0" style="shape-rendering:geometricPrecision; text-rendering:geometricPrecision; image-rendering:optimizeQuality; fill-rule:evenodd; clip-rule:evenodd"
viewBox="0 0 16 16"
 xmlns:xlink="http://www.w3.org/1999/xlink">
 <defs>
  <style type="text/css">
   <![CDATA[
    .fil0 {fill:#147935}
    .fil3 {fill:#FAB001}
    .fil1 {fill:#FAC924}
    .fil2 {fill:#FCE909}
   ]]>
  </style>
 </defs>
 <g id="Capa_x0020_1">
  <metadata id="CorelCorpID_0Corel-Layer"/>
  <g id="_2401489957760">
   <path class="fil0" d="M12.94 12.15c0,0.59 -0.05,0.68 -0.55,0.64 -0.33,-0.03 -0.85,-0.06 -1.66,0.16 -1.52,0.4 -2.23,1.49 -2.44,2.99 1.24,-1.05 1.95,-1.21 3.44,-1.12 1.61,0.1 2.56,0.46 4,1.1 0.21,0.09 0.22,0 0.22,-0.18l0 -8.1 -0.66 -0.18 -0.03 7.21c0,0.32 -0.02,0.56 -0.04,0.59 -0.08,0.11 -0.56,-0.12 -0.87,-0.22 -1.4,-0.4 -2.52,-0.65 -3.96,-0.42 -0.82,0.13 -1.31,0.48 -2.05,1.22 0.47,-0.81 1.22,-1.47 2.04,-1.66 1.17,-0.27 2.42,-0.02 3.55,0.3 0.14,0.04 0.43,0.14 0.63,0.2 0.19,0.07 0.19,0 0.19,-0.15l-0.03 -8.32 -0.59 -0.11 -0.02 7.08c0,0.26 0.03,0.48 -0.04,0.64 -0.06,0.12 -0.17,0.17 -0.34,0.12 -0.99,-0.24 -2.39,-0.35 -3.38,-0.06 -1.01,0.28 -1.7,1.06 -2.02,1.95 0.18,-1.05 1.07,-2.09 1.96,-2.37 1.04,-0.33 2.01,-0.23 3.04,-0.11 0.18,0.03 0.23,0.01 0.23,-0.23l0.01 -8.09 -0.62 -0.1 -0.01 7.22zm-9.88 0c0,0.59 0.05,0.68 0.55,0.64 0.33,-0.03 0.85,-0.06 1.66,0.16 1.52,0.4 2.23,1.49 2.44,2.99 -1.24,-1.05 -1.95,-1.21 -3.45,-1.12 -1.6,0.1 -2.55,0.46 -3.99,1.1 -0.21,0.09 -0.22,0 -0.22,-0.18l0 -8.1 0.66 -0.18 0.03 7.21c0,0.32 0.01,0.56 0.04,0.59 0.08,0.11 0.56,-0.12 0.86,-0.22 1.41,-0.4 2.52,-0.65 3.97,-0.42 0.82,0.13 1.31,0.48 2.04,1.22 -0.46,-0.81 -1.21,-1.47 -2.03,-1.66 -1.17,-0.27 -2.42,-0.02 -3.56,0.3 -0.13,0.04 -0.42,0.14 -0.63,0.2 -0.18,0.07 -0.18,0 -0.19,-0.15l0.03 -8.32 0.6 -0.11 0.02 7.08c0,0.26 -0.03,0.48 0.04,0.64 0.06,0.12 0.17,0.17 0.34,0.12 0.99,-0.24 2.39,-0.35 3.38,-0.06 1.01,0.28 1.7,1.06 2.02,1.95 -0.18,-1.05 -1.07,-2.09 -1.96,-2.37 -1.04,-0.33 -2.01,-0.23 -3.04,-0.11 -0.18,0.03 -0.23,0.01 -0.23,-0.23l-0.01 -8.09 0.62 -0.1 0.01 7.22z"/>
   <path class="fil1" d="M8.86 3.05l0.95 0c0.09,0 0.17,0.09 0.17,0.19l0 1.1c0,0.11 -0.08,0.2 -0.17,0.2l-0.95 0c-0.09,0 -0.16,-0.09 -0.16,-0.2l0 -1.1c0,-0.1 0.07,-0.19 0.16,-0.19zm1.29 3l0.95 0c0.09,0 0.17,0.09 0.17,0.19l0 1.11c0,0.1 -0.08,0.19 -0.17,0.19l-0.95 0c-0.09,0 -0.16,-0.09 -0.16,-0.19l0 -1.11c0,-0.1 0.07,-0.19 0.16,-0.19zm-1.29 1.5l0.95 0c0.09,0 0.17,0.09 0.17,0.19l0 1.11c0,0.1 -0.08,0.19 -0.17,0.19l-0.95 0c-0.09,0 -0.16,-0.09 -0.16,-0.19l0 -1.11c0,-0.1 0.07,-0.19 0.16,-0.19zm-2.58 1.5l0.95 0c0.09,0 0.16,0.09 0.16,0.19l0 1.11c0,0.1 -0.07,0.19 -0.16,0.19l-0.95 0c-0.09,0 -0.17,-0.09 -0.17,-0.19l0 -1.11c0,-0.1 0.08,-0.19 0.17,-0.19zm-1.3 -1.5l0.95 0c0.09,0 0.17,0.09 0.17,0.19l0 1.11c0,0.1 -0.08,0.19 -0.17,0.19l-0.95 0c-0.09,0 -0.16,-0.09 -0.16,-0.19l0 -1.11c0,-0.1 0.07,-0.19 0.16,-0.19z"/>
   <path class="fil2" d="M8.86 9.05l0.95 0c0.09,0 0.17,0.09 0.17,0.19l0 1.11c0,0.1 -0.08,0.19 -0.17,0.19l-0.95 0c-0.09,0 -0.16,-0.09 -0.16,-0.19l0 -1.11c0,-0.1 0.07,-0.19 0.16,-0.19zm-3.88 1.5l0.95 0c0.09,0 0.17,0.09 0.17,0.2l0 1.1c0,0.1 -0.08,0.19 -0.17,0.19l-0.95 0c-0.09,0 -0.16,-0.09 -0.16,-0.19l0 -1.1c0,-0.11 0.07,-0.2 0.16,-0.2zm1.3 -7.5l0.95 0c0.09,0 0.16,0.09 0.16,0.19l0 1.1c0,0.11 -0.07,0.2 -0.16,0.2l-0.95 0c-0.09,0 -0.17,-0.09 -0.17,-0.2l0 -1.1c0,-0.1 0.08,-0.19 0.17,-0.19zm1.29 -3l0.95 0c0.09,0 0.16,0.08 0.16,0.19l0 1.1c0,0.11 -0.07,0.19 -0.16,0.19l-0.95 0c-0.09,0 -0.17,-0.08 -0.17,-0.19l0 -1.1c0,-0.11 0.08,-0.19 0.17,-0.19zm3.88 9l0.95 0c0.09,0 0.16,0.09 0.16,0.19l0 1.11c0,0.1 -0.07,0.19 -0.16,0.19l-0.95 0c-0.1,0 -0.17,-0.09 -0.17,-0.19l0 -1.11c0,-0.1 0.07,-0.19 0.17,-0.19zm-7.76 -3l0.95 0c0.09,0 0.17,0.09 0.17,0.19l0 1.11c0,0.1 -0.08,0.19 -0.17,0.19l-0.95 0c-0.09,0 -0.16,-0.09 -0.16,-0.19l0 -1.11c0,-0.1 0.07,-0.19 0.16,-0.19z"/>
   <path class="fil3" d="M10.15 10.55l0.95 0c0.09,0 0.17,0.09 0.17,0.2l0 1.1c0,0.1 -0.08,0.19 -0.17,0.19l-0.95 0c-0.09,0 -0.16,-0.09 -0.16,-0.19l0 -1.1c0,-0.11 0.07,-0.2 0.16,-0.2zm-3.87 0l0.95 0c0.09,0 0.16,0.09 0.16,0.2l0 1.1c0,0.1 -0.07,0.19 -0.16,0.19l-0.95 0c-0.09,0 -0.17,-0.09 -0.17,-0.19l0 -1.1c0,-0.11 0.08,-0.2 0.17,-0.2zm-2.59 -1.5l0.95 0c0.09,0 0.17,0.09 0.17,0.19l0 1.11c0,0.1 -0.08,0.19 -0.17,0.19l-0.95 0c-0.09,0 -0.16,-0.09 -0.16,-0.19l0 -1.11c0,-0.1 0.07,-0.19 0.16,-0.19zm3.88 -4.5l0.95 0c0.09,0 0.16,0.09 0.16,0.19l0 1.1c0,0.11 -0.07,0.2 -0.16,0.2l-0.95 0c-0.09,0 -0.17,-0.09 -0.17,-0.2l0 -1.1c0,-0.1 0.08,-0.19 0.17,-0.19zm-2.59 0l0.95 0c0.09,0 0.17,0.09 0.17,0.19l0 1.1c0,0.11 -0.08,0.2 -0.17,0.2l-0.95 0c-0.09,0 -0.16,-0.09 -0.16,-0.2l0 -1.1c0,-0.1 0.07,-0.19 0.16,-0.19z"/>
  </g>
 </g>
</svg>
