<?xml version="1.0" encoding="UTF-8"?>
<!DOCTYPE svg PUBLIC "-//W3C//DTD SVG 1.1//EN" "http://www.w3.org/Graphics/SVG/1.1/DTD/svg11.dtd">
<!-- Creator: CorelDRAW 2019 (64-Bit) -->
<svg xmlns="http://www.w3.org/2000/svg" xml:space="preserve" width="16px" height="16px" version="1.1" style="shape-rendering:geometricPrecision; text-rendering:geometricPrecision; image-rendering:optimizeQuality; fill-rule:evenodd; clip-rule:evenodd"
viewBox="0 0 16 16"
 xmlns:xlink="http://www.w3.org/1999/xlink">
 <defs>
  <style type="text/css">
   <![CDATA[
    .fil0 {fill:#009745}
    .fil1 {fill:#AFCA1E}
   ]]>
  </style>
 </defs>
 <g id="Capa_x0020_1">
  <metadata id="CorelCorpID_0Corel-Layer"/>
  <g id="_3093921966640">
   <g id="_2221540130080">
    <path class="fil0" d="M8.49 13.39l-0.13 -0.11c-2.2,-0.22 -3.28,-0.81 -4.45,-2.16 -1.46,-1.71 -1.45,-4.83 0.55,-6.75 1.15,-1.11 1.97,-1.27 3.9,-1.6l0.09 -0.09 0.09 -2.55c-11.31,0 -11.33,15.82 -0.01,15.82l-0.04 -2.56z"/>
    <path class="fil1" d="M8.36 2.77l0 2.15c3.76,0.3 4.15,4.72 1.27,5.86 -1.4,0.55 -1.27,-0.47 -1.27,2.5l0.13 0.11c2.47,-0.04 4.79,-1.9 5.3,-4.05 0.84,-3.52 -1.81,-6.66 -5.34,-6.66l-0.09 0.09z"/>
    <path class="fil1" d="M8.53 15.95l7.32 0 0.02 -7.03c0,2.49 -2.29,4.92 -4.35,6.07 -0.62,0.35 -2,0.96 -2.99,0.96z"/>
   </g>
  </g>
 </g>
</svg>
