<?xml version="1.0" encoding="UTF-8"?>
<!DOCTYPE svg PUBLIC "-//W3C//DTD SVG 1.0//EN" "http://www.w3.org/TR/2001/REC-SVG-20010904/DTD/svg10.dtd">
<!-- Creator: CorelDRAW 2019 (64-Bit) -->
<svg xmlns="http://www.w3.org/2000/svg" xml:space="preserve" width="16px" height="16px" version="1.0" style="shape-rendering:geometricPrecision; text-rendering:geometricPrecision; image-rendering:optimizeQuality; fill-rule:evenodd; clip-rule:evenodd"
viewBox="0 0 16 16"
 xmlns:xlink="http://www.w3.org/1999/xlink">
 <defs>
  <style type="text/css">
   <![CDATA[
    .fil5 {fill:#06702B}
    .fil1 {fill:#06702C}
    .fil0 {fill:#07742E}
    .fil2 {fill:#403E3C}
    .fil3 {fill:#CCCCCC}
    .fil4 {fill:#E0E0E0}
   ]]>
  </style>
 </defs>
 <g id="Capa_x0020_1">
  <metadata id="CorelCorpID_0Corel-Layer"/>
  <g id="_2370835423152">
   <path class="fil0" d="M6.35 2.46l-0.01 0.01c-0.04,0.03 -0.08,0.04 -0.12,0.07l-0.37 0.21c-0.04,0.03 -0.09,0.05 -0.13,0.07l-0.62 0.36c-0.05,0.03 -0.07,0.05 -0.12,0.07l-0.5 0.29c-0.04,0.03 -0.08,0.04 -0.12,0.07l-0.02 0.01 -0.79 0.45c-0.04,0.02 -0.05,0.03 -0.09,0.06l-0.44 0.26c-0.03,0.02 -0.04,0.03 -0.08,0.05 -0.04,0.02 -0.06,0.03 -0.09,0.05 -0.36,0.23 -0.76,0.43 -1.14,0.68 -0.06,0.04 -0.12,0.08 -0.17,0.11l-0.01 0.01c-0.08,0.05 -0.14,0.09 -0.22,0.14 -0.14,0.11 -0.48,0.33 -0.56,0.5 0.09,0.16 0.29,0.3 0.44,0.4 0.06,0.05 0.1,0.08 0.16,0.12 0.2,0.14 0.41,0.25 0.6,0.38 0.04,0.02 0.05,0.03 0.09,0.05l0.36 0.2c0.12,0.07 0.23,0.14 0.36,0.2 0.08,0.03 0.12,0.06 0.19,0.09 0.07,0.03 0.13,0.06 0.19,0.08 0.13,0.06 0.27,0.14 0.41,0.15l0 -0.93c0.14,-0.01 0.6,-0.16 0.76,-0.21l0.5 -0.15c0.47,-0.12 1.63,-0.33 2.1,-0.35 0.09,0 0.2,-0.03 0.3,-0.03 0.08,0 0.1,-0.01 0.15,-0.01 0.05,-0.01 0.12,0 0.17,0 0.07,0 0.09,-0.01 0.15,-0.02 0.09,-0.01 0.22,0 0.32,0 1.16,0 2.34,0.24 3.4,0.51l0.93 0.23c0.04,0.01 0.08,0.03 0.13,0.03l0 0.93c0.26,-0.02 0.63,-0.23 0.87,-0.37 0.02,-0.01 0.03,-0.01 0.05,-0.03 0.15,-0.09 0.27,-0.17 0.41,-0.26 0.09,-0.06 0.32,-0.23 0.42,-0.25 0,0.39 -0.01,0.73 -0.01,1.12 -0.03,0.08 -0.42,0.4 -0.51,0.53 0.05,0.09 0.1,0.16 0.15,0.25 0.03,0.04 0.06,0.08 0.08,0.12 0.12,0.17 0.3,0.45 0.47,0.56 0.13,-0.09 0.35,-0.38 0.48,-0.52 0.04,-0.04 0.05,-0.06 0.09,-0.11l0.18 -0.22c-0.02,-0.07 -0.09,-0.13 -0.13,-0.18l-0.36 -0.42 -0.09 -1.34 0.49 -0.32c0.07,-0.06 0.36,-0.31 0.39,-0.43 -0.1,-0.03 -0.35,-0.2 -0.46,-0.26 -0.04,-0.02 -0.07,-0.04 -0.11,-0.06 -0.04,-0.03 -0.08,-0.04 -0.12,-0.07 -0.26,-0.18 -0.77,-0.43 -1.03,-0.6 -0.18,-0.13 -0.39,-0.21 -0.57,-0.34 -0.04,-0.02 -0.08,-0.04 -0.12,-0.06 -0.14,-0.1 -0.31,-0.17 -0.46,-0.27l-0.34 -0.2c-0.33,-0.17 -0.7,-0.42 -1.04,-0.6 -0.04,-0.03 -0.07,-0.05 -0.11,-0.07l-1.26 -0.74c-0.05,-0.02 -0.08,-0.03 -0.12,-0.06l-0.23 -0.13c-0.04,-0.03 -0.07,-0.05 -0.11,-0.07l-0.46 -0.27c-0.05,-0.02 -0.07,-0.04 -0.12,-0.07l-0.34 -0.2c-0.11,-0.07 -0.24,-0.11 -0.33,-0.2 0,0 -0.01,0 -0.01,0l-0.54 0.31c-0.05,0.02 -0.06,0.04 -0.11,0.06l-1.1 0.63z"/>
   <path class="fil1" d="M3.89 6.85l0 3.54c0.15,0.08 1.06,0.47 1.24,0.53l0.77 0.32c0.17,0.06 0.34,0.13 0.51,0.2 0.08,0.03 0.16,0.06 0.25,0.09 0.05,0.02 0.08,0.04 0.13,0.05l0.65 0.24c0.67,0.21 0.45,0.18 1.1,-0.01 0.36,-0.11 0.69,-0.25 1.04,-0.38l2.42 -0.98c0.04,-0.02 0.08,-0.03 0.12,-0.06l0 -3.54 -0.46 -0.11c-0.38,-0.1 -1.03,-0.22 -1.41,-0.29l-0.73 -0.11c-0.17,-0.03 -0.71,-0.05 -0.78,-0.07 -0.14,-0.03 -1.3,-0.03 -1.46,0l-0.25 0.02c-0.09,0.01 -0.18,0.01 -0.27,0.02l-0.74 0.1c-0.61,0.07 -1.39,0.28 -2,0.41 -0.04,0.01 -0.08,0.03 -0.13,0.03z"/>
   <path class="fil2" d="M0.05 12.19c0,0.25 0.25,0.46 0.44,0.53 0.43,0.16 0.79,0.27 1.23,0.4 0.98,0.3 2.05,0.57 3.03,0.83 0.18,0.04 0.34,0.08 0.51,0.13 0.18,0.04 0.35,0.08 0.52,0.12 0.09,0.03 0.17,0.05 0.26,0.07 0.09,0.02 0.18,0.04 0.26,0.06 0.35,0.07 0.73,0.16 1.08,0.22 0.4,0.06 0.55,0.11 0.94,0.03 0.11,-0.02 0.19,-0.03 0.29,-0.06 0.45,-0.09 1.09,-0.23 1.54,-0.35l3.44 -0.89c0.42,-0.11 0.95,-0.24 1.36,-0.37 0.06,-0.01 0.08,-0.02 0.13,-0.04 0.17,-0.04 0.45,-0.18 0.59,-0.29 0.02,-0.02 0.06,-0.06 0.08,-0.08l0.02 -0.02c0.13,-0.16 0.15,-0.31 -0.04,-0.42 -0.25,-0.13 -0.69,-0.08 -0.94,-0.03 -0.79,0.15 -2.81,0.68 -3.53,0.93 -0.39,0.14 -0.89,0.28 -1.29,0.41 -0.14,0.05 -0.28,0.08 -0.43,0.12 -0.63,0.17 -1.31,0.24 -1.97,0.22l-0.5 -0.06c-0.04,0 -0.09,-0.01 -0.12,-0.01 -0.09,-0.02 -0.16,-0.02 -0.26,-0.04 -0.34,-0.06 -1.24,-0.26 -1.58,-0.37 -0.08,-0.02 -0.15,-0.03 -0.23,-0.06 -0.07,-0.02 -0.15,-0.04 -0.21,-0.06 -0.3,-0.1 -0.79,-0.22 -1.08,-0.33 -0.07,-0.02 -0.14,-0.05 -0.21,-0.06 -0.39,-0.11 -0.88,-0.29 -1.28,-0.41 -0.4,-0.11 -1.25,-0.39 -1.61,-0.39 -0.14,0 -0.31,0.04 -0.39,0.14 -0.02,0.03 -0.05,0.08 -0.05,0.13z"/>
   <path class="fil3" d="M7.99 13.34l0 -0.54 -0.21 -0.08c-0.08,-0.03 -0.14,-0.05 -0.21,-0.08 -0.14,-0.05 -0.29,-0.11 -0.44,-0.16 -0.52,-0.18 -1.09,-0.42 -1.61,-0.61 -0.04,-0.02 -0.07,-0.03 -0.11,-0.04 -0.07,-0.03 -0.13,-0.05 -0.21,-0.08l-2.8 -1.06c-0.09,-0.03 -0.14,-0.06 -0.22,-0.08 -0.07,-0.03 -0.15,-0.06 -0.22,-0.09 -0.13,-0.04 -0.8,-0.31 -0.87,-0.32 0,0.11 -0.06,0.48 -0.07,0.63 -0.02,0.2 -0.07,0.42 -0.07,0.64 0.05,0.02 0.15,0.05 0.2,0.07 0.07,0.02 0.14,0.04 0.22,0.07 1.58,0.47 3.25,0.86 4.84,1.28l1.78 0.45z"/>
   <path class="fil4" d="M7.99 12.8l0 0.54c0.06,0 0.14,-0.03 0.21,-0.05l1.5 -0.38c0.57,-0.16 1.14,-0.29 1.72,-0.45l1.91 -0.49c0.07,-0.02 0.14,-0.04 0.22,-0.06l1.3 -0.31c0,-0.06 0,-0.12 0,-0.18l0.06 -0.85c0.02,-0.11 0.01,-0.25 0.01,-0.37 -0.06,0 -0.19,0.04 -0.23,0.06 -0.28,0.09 -0.36,0.11 -0.65,0.24 -0.29,0.12 -0.56,0.24 -0.85,0.34 -0.07,0.03 -0.14,0.06 -0.22,0.08 -0.91,0.33 -1.9,0.74 -2.81,1.06l-0.44 0.17c-0.34,0.12 -0.73,0.28 -1.08,0.4l-0.65 0.25z"/>
   <path class="fil5" d="M6.35 2.46l-0.01 0.01 0.01 -0.01z"/>
   <path class="fil5" d="M4.36 3.61l-0.02 0.01 0.02 -0.01z"/>
   <path class="fil5" d="M1.54 5.28l-0.01 0.01 0.01 -0.01z"/>
  </g>
 </g>
</svg>
