<?xml version="1.0" encoding="UTF-8"?>
<!DOCTYPE svg PUBLIC "-//W3C//DTD SVG 1.0//EN" "http://www.w3.org/TR/2001/REC-SVG-20010904/DTD/svg10.dtd">
<!-- Creator: CorelDRAW 2019 (64-Bit) -->
<svg xmlns="http://www.w3.org/2000/svg" xml:space="preserve" width="16px" height="16px" version="1.0" style="shape-rendering:geometricPrecision; text-rendering:geometricPrecision; image-rendering:optimizeQuality; fill-rule:evenodd; clip-rule:evenodd"
viewBox="0 0 16 16"
 xmlns:xlink="http://www.w3.org/1999/xlink">
 <defs>
  <style type="text/css">
   <![CDATA[
    .fil1 {fill:#1B7C3B}
    .fil0 {fill:#FAC929}
   ]]>
  </style>
 </defs>
 <g id="Capa_x0020_1">
  <metadata id="CorelCorpID_0Corel-Layer"/>
  <g id="_1769393058624">
   <path class="fil0" d="M5.47 13.68c-0.23,0.3 -0.38,0.88 -0.41,1.27l3.12 0c-0.06,-0.36 -0.27,-1.11 -0.44,-1.29 -0.25,-0.26 -0.7,-0.42 -1.12,-0.42 -0.48,0 -0.93,0.15 -1.15,0.44zm1.15 -2.47c0.48,0 0.87,0.45 0.87,1 0,0.55 -0.39,1 -0.87,1 -0.48,0 -0.88,-0.45 -0.88,-1 0,-0.55 0.4,-1 0.88,-1zm2.69 2.47c-0.23,0.3 -0.37,0.88 -0.41,1.27l3.12 0c-0.05,-0.36 -0.27,-1.11 -0.44,-1.29 -0.24,-0.26 -0.69,-0.42 -1.12,-0.42 -0.47,0 -0.93,0.15 -1.15,0.44zm1.15 -2.47c0.49,0 0.88,0.45 0.88,1 0,0.55 -0.39,1 -0.88,1 -0.48,0 -0.87,-0.45 -0.87,-1 0,-0.55 0.39,-1 0.87,-1zm2.66 2.47c-0.23,0.3 -0.38,0.88 -0.41,1.27l3.12 0c-0.06,-0.36 -0.27,-1.11 -0.44,-1.29 -0.25,-0.26 -0.7,-0.42 -1.12,-0.42 -0.48,0 -0.93,0.15 -1.15,0.44zm1.15 -2.47c0.48,0 0.87,0.45 0.87,1 0,0.55 -0.39,1 -0.87,1 -0.48,0 -0.87,-0.45 -0.87,-1 0,-0.55 0.39,-1 0.87,-1z"/>
   <path class="fil1" d="M5.41 3.2c0.09,-0.02 0.07,-0.32 0.13,-0.46 0.2,-0.41 0.79,-0.29 1.29,-0.29l7.03 0c2.08,0 1.67,-0.38 1.67,4.1 0,0.67 0,1.34 0,2.01 0,2.3 0.34,1.86 -3.65,1.86 -0.36,0 -5.9,0.05 -6.11,-0.04 -0.29,-0.13 -0.24,-0.41 -0.35,-0.63l-0.37 0.01c-0.03,0.55 0.41,1.09 0.87,1.11 1.67,0.05 4.05,-0.01 5.78,-0.01 0.69,0 3.31,0.13 3.72,-0.11 0.52,-0.29 0.53,-0.85 0.53,-1.62l-0.04 -4.33c0,-3.11 0.32,-2.74 -3.4,-2.74l-6.72 0.01c-0.16,0.03 -0.43,0.18 -0.51,0.34 -0.11,0.22 -0.14,0.41 -0.16,0.7 -0.01,0.16 0.2,0.12 0.29,0.09zm1.01 3.61c0.07,-0.11 0.05,-0.19 0.06,-0.33 0,-0.14 0.05,-0.17 0.11,-0.25 1.85,-1.61 2.67,-2.15 2.58,-2.3 -0.09,-0.16 -1.05,0.83 -2.69,2.14 -0.09,0.04 -0.1,0.08 -0.21,0.05 -0.24,-0.08 -0.32,-0.07 -0.53,0.07 -0.2,0.14 -0.33,0.29 -0.54,0.32 -0.07,-0.13 -0.38,-1.38 -0.43,-1.55 -0.22,-1.14 -3.12,-1.2 -3.77,-0.27 -0.5,0.7 -1.07,4.41 -0.93,4.75 0.15,0.17 0.43,0.29 0.63,0.05 0.17,-0.2 0.3,-1.25 0.43,-1.84 0.05,-0.22 0.18,-0.64 0.22,-0.66 0.09,0.04 0.05,0.51 0.06,0.74 0.01,0.29 -0.02,0.63 -0.02,0.78 0,0.4 -0.04,0.79 -0.04,1.18 -0.01,0.68 -0.23,4.94 0.04,5.13 0.17,0.12 0.5,0.14 0.69,0.01 0.07,-0.06 0.14,-0.29 0.2,-0.62 0.19,-1.11 0.31,-3.33 0.37,-3.78 0.03,-0.23 -0.01,-0.25 0.12,-0.36 0.1,0.07 0.12,0.21 0.14,0.37 0.05,0.62 0.24,2.94 0.39,3.92 0.03,0.24 0.06,0.4 0.09,0.43 0.07,0.09 0.97,0.37 0.91,-0.47l-0.03 -4.7 -0.07 -1.16 0.02 -1.47c0.16,0.17 0.1,0.5 0.47,0.76 0.51,0.35 1.73,-0.85 1.73,-0.94zm-4.06 -5.67c-0.57,0.2 -0.99,0.91 -0.77,1.78 0.08,0.3 0.34,0.59 0.55,0.75 0.28,0.2 0.71,0.24 1.04,0.12 1.54,-0.59 0.79,-3.25 -0.82,-2.65z"/>
  </g>
 </g>
</svg>
