<?xml version="1.0" encoding="UTF-8"?>
<!DOCTYPE svg PUBLIC "-//W3C//DTD SVG 1.0//EN" "http://www.w3.org/TR/2001/REC-SVG-20010904/DTD/svg10.dtd">
<!-- Creator: CorelDRAW 2019 (64-Bit) -->
<svg xmlns="http://www.w3.org/2000/svg" xml:space="preserve" width="16px" height="16px" version="1.0" style="shape-rendering:geometricPrecision; text-rendering:geometricPrecision; image-rendering:optimizeQuality; fill-rule:evenodd; clip-rule:evenodd"
viewBox="0 0 16 16"
 xmlns:xlink="http://www.w3.org/1999/xlink">
 <defs>
  <style type="text/css">
   <![CDATA[
    .fil0 {fill:#147835}
    .fil1 {fill:#FAC924}
   ]]>
  </style>
 </defs>
 <g id="Capa_x0020_1">
  <metadata id="CorelCorpID_0Corel-Layer"/>
  <g id="_2401637129824">
   <path class="fil0" d="M15.88 13.65c0.1,-0.12 0.1,-0.35 -0.05,-0.45 -0.12,-0.08 -0.34,-0.04 -0.48,-0.04l-14.57 0c-0.4,0 -0.73,-0.11 -0.73,0.41 0.17,0.18 0.07,0.18 0.37,0.18l6.75 0c0.24,0.02 0.14,0.08 0.36,0.21 0.68,0.42 1.05,-0.15 1.17,-0.2 0.13,-0.05 4.67,-0.02 5.17,-0.02 0.37,0 1.85,0.11 2.01,-0.09zm-7.89 -1.47l1.93 -1.27c1.44,-1.02 2.2,-1.05 1.85,-1.96 -0.21,-0.54 -0.79,-0.96 -1.26,-1.19 -0.91,-0.45 -1.63,-0.49 -2.75,-0.48 -1,0 -1.64,0.15 -2.44,0.54 -0.4,0.19 -1.02,0.77 -1.14,1.19 -0.23,0.8 0.63,1.02 1.77,1.83l2.04 1.34zm1.85 -8.28l-3.75 -0.02 0 0.99c0,1.07 0.94,2.1 1.87,2.11 0.94,0.01 1.88,-0.97 1.88,-2.12l0 -0.96zm-5.37 -1.45l1.62 0.01 0 1.09 3.75 0 0 -1.11 0.76 0 0 2.27 -0.06 0.15 0 0.44 0.21 0.17 0.21 -0.17 0 -0.44 -0.06 -0.15 0 -2.27 0.61 0 0 -0.55 -3.51 0 -3.52 0 -0.01 0.56z"/>
   <path class="fil1" d="M0.33 12.83c-0.25,0 -0.23,-0.36 -0.01,-0.36l4.45 0.06 -4.43 -0.35c-0.19,-0.02 -0.21,-0.34 0.03,-0.32l4.43 0.35 -4.29 -0.6c-0.25,-0.03 -0.18,-0.37 0.08,-0.33l4.28 0.66 -4.08 -0.93c-0.27,-0.06 -0.19,-0.39 0.08,-0.32l4.15 1.07 -3.94 -1.27c-0.27,-0.08 -0.11,-0.39 0.11,-0.32l3.92 1.4 -3.65 -1.49c-0.28,-0.11 -0.03,-0.36 0.1,-0.3l3.73 1.67 -3.35 -1.71c-0.2,-0.1 -0.13,-0.38 0.05,-0.29l6 3 6.02 -3c0.18,-0.09 0.25,0.19 0.05,0.29l-3.35 1.71 3.73 -1.67c0.13,-0.06 0.37,0.19 0.1,0.3l-3.65 1.49 3.92 -1.4c0.22,-0.07 0.38,0.24 0.11,0.32l-3.95 1.27 4.16 -1.07c0.27,-0.07 0.35,0.26 0.08,0.32l-4.08 0.93 4.28 -0.66c0.26,-0.04 0.33,0.3 0.08,0.33l-4.29 0.6 4.43 -0.35c0.24,-0.02 0.22,0.3 0.03,0.32l-4.43 0.35 4.45 -0.06c0.22,0 0.24,0.36 -0.01,0.36l-15.34 0z"/>
  </g>
 </g>
</svg>
