<?xml version="1.0" encoding="UTF-8"?>
<!DOCTYPE svg PUBLIC "-//W3C//DTD SVG 1.0//EN" "http://www.w3.org/TR/2001/REC-SVG-20010904/DTD/svg10.dtd">
<!-- Creator: CorelDRAW 2019 (64-Bit) -->
<svg xmlns="http://www.w3.org/2000/svg" xml:space="preserve" width="16px" height="16px" version="1.0" style="shape-rendering:geometricPrecision; text-rendering:geometricPrecision; image-rendering:optimizeQuality; fill-rule:evenodd; clip-rule:evenodd"
viewBox="0 0 16 16"
 xmlns:xlink="http://www.w3.org/1999/xlink">
 <defs>
  <style type="text/css">
   <![CDATA[
    .fil1 {fill:#147935}
    .fil0 {fill:#F9CA25}
   ]]>
  </style>
 </defs>
 <g id="Capa_x0020_1">
  <metadata id="CorelCorpID_0Corel-Layer"/>
  <g id="_2401494993024">
   <path class="fil0" d="M1.62 7.58c-0.01,-1.28 -0.01,-2.04 -0.01,-2.5 -0.01,-0.77 0.09,-0.64 1.14,-0.66 0.78,0 0.98,0.02 1,0.31 0,0.13 0,0.42 0,0.55 0.59,0.01 0.58,0.01 0.57,0.9 -0.01,0.87 0,0.94 -0.34,0.96 -0.14,0 -0.19,0.01 -0.22,0.14 -0.01,0.07 -0.02,0.17 -0.02,0.35 0,0.46 -0.46,0.43 -0.8,0.43 -0.41,0 -0.62,0.01 -0.74,0.01 -0.32,-0.01 -0.58,-0.17 -0.58,-0.49zm7.49 -4.97c1.59,-0.53 2,1.78 0.73,2.07 -1.55,0.34 -1.93,-1.67 -0.73,-2.07zm2.26 0.95c0.28,-0.96 -0.28,-2.74 -0.91,-3.1 -0.71,-0.4 -2.59,-0.49 -3.54,-0.35 -4.65,0.72 -7.55,4.65 -6.74,9.47 0.22,1.28 0.63,1.86 1.21,2.85 0.58,0.98 2.23,2.39 3.35,2.77 0.9,0.31 0.69,0.39 1.59,0.01 0.84,-0.35 1.88,-1.01 2.52,-1.56 0.65,-0.56 1.43,-1.5 1.75,-2.36 0.4,-1.08 0.4,-2.33 -0.22,-3.35 -0.52,-0.85 -1.35,-1.21 -2.23,-1.23 -1.34,-0.04 -1.62,0 -2.69,0.01 -0.39,0 -0.62,-0.18 -0.59,-0.53 0.02,-0.32 0.24,-0.52 0.6,-0.53 0.96,-0.03 1.57,0.02 2.76,0.02 0.36,0 0.71,-0.06 1.04,-0.15 1.3,-0.38 1.76,-0.83 2.1,-1.97zm-7.63 3.41c0.45,0.01 0.42,-0.01 0.42,-0.75 0.01,-0.74 0.07,-0.7 -0.41,-0.7l-0.01 1.45z"/>
   <path class="fil1" d="M12.89 3.45c0.59,2.02 0.57,5.22 -0.36,6.92 -0.31,0.57 -0.59,1.27 -0.95,1.76 -0.98,1.35 -1.15,1.72 -2.65,2.76 -0.84,0.52 -1.29,0.68 -1.95,0.9 0.13,0.04 0.34,0.09 0.49,0.11 2.13,0.38 5.66,-1.44 5.74,-2 -0.03,-0.25 -0.25,-0.48 -0.36,-0.77 -0.31,-0.77 -0.21,-1.61 -0.09,-1.88 0.21,-0.54 0.26,-0.72 0.31,-0.75 0.02,-0.01 0.06,-0.02 0.13,0.04 0.03,0.11 0.02,0.45 0.07,0.76 0.03,0.26 0.07,0.52 0.13,0.66 0.09,0.21 0.39,1.02 0.54,1.13 0.24,-0.04 0.21,-0.06 0.36,-0.25 0.92,-1.11 1.55,-2.82 1.63,-4.21 0.12,-1.95 -0.28,-3.47 -1.29,-5.05 -0.18,-0.27 -0.76,-0.99 -1.29,-1.51 -0.46,-0.44 -0.93,-0.74 -1.5,-1.02 0.52,0.92 0.75,1.4 1.04,2.4z"/>
  </g>
 </g>
</svg>
