<svg id="_x33_0" enable-background="new 0 0 64 64" height="512" viewBox="0 0 64 64" width="512" xmlns="http://www.w3.org/2000/svg"><g><g><g><path d="m42 62h-20c0-5.52 4.48-10 10-10 2.76 0 5.26 1.12 7.07 2.93s2.93 4.31 2.93 7.07z" fill="#5cd6b3"/></g><g><path d="m22 62h-20c0-2.76 1.12-5.26 2.93-7.07s4.31-2.93 7.07-2.93c5.52 0 10 4.48 10 10z" fill="#fcd770"/></g><g><path d="m62 62h-20c0-2.76 1.12-5.26 2.93-7.07s4.31-2.93 7.07-2.93 5.26 1.12 7.07 2.93 2.93 4.31 2.93 7.07z" fill="#fcd770"/></g><g><path d="m12 29v7h-10v-5.66c0-2.49 1.83-4.6 4.29-4.95l2.71-.39z" fill="#ff826e"/></g><g><path d="m23 36h-11v-7l3-4 2.71.39c.45.06.89.19 1.29.36v5.01c0 .79.32 1.56.88 2.12z" fill="#ff826e"/></g><g><path d="m28 33-4 4-1-1-3.12-3.12c-.56-.56-.88-1.33-.88-2.12v-5.01-.32c0-3.08 2.34-5.66 5.4-5.97l1.72-.17 1.88 4.71 4-2 4 2 2-5h5v-9h6v.08 9.94.64c0 1.83-.99 3.46-2.5 4.33-.54.32-1.14.53-1.79.62l-2.71.39v10h-4v-7c0-.55-.45-1-1-1h-8c-.55 0-1 .45-1 1z" fill="#4fc1e9"/></g><g><path d="m31 37.17c0-.75-.3-1.47-.83-2l-2.17-2.17v-4c0-.55.45-1 1-1h8c.55 0 1 .45 1 1v7 3c0 .55-.45 1-1 1h-5-3.83c.78 0 1.49-.32 2-.83s.83-1.22.83-2z" fill="#e6e9ed"/></g><g><path d="m32 22-4 2-1.88-4.71 2.88-.29z" fill="#3bafda"/></g><g><path d="m38 19-2 5-4-2 3-3z" fill="#3bafda"/></g><g><path d="m48.5 29 3.5 7h-10v-10l2.71-.39c.65-.09 1.25-.3 1.79-.62z" fill="#ff826e"/></g><g><path d="m62 28.34v7.66h-10l3.5-7 2.75-5.5c2.03.52 3.53 2.27 3.73 4.37z" fill="#ff826e"/></g><g><path d="m55.5 29-3.5 7-3.5-7z" fill="#ccd1d9"/></g><g><path d="m19 13.66c0 1.5-.6 2.94-1.66 4l-.34.34v-1.36c0-.95-.67-1.77-1.61-1.96l-1.43-.29c-1.14-.23-1.96-1.23-1.96-2.39 0 1.16-.82 2.16-1.96 2.39l-1.43.29c-.94.19-1.61 1.01-1.61 1.96v1.36l-.34-.34c-1.06-1.06-1.66-2.5-1.66-4 0-3.13 2.53-5.66 5.66-5.66h2.68c1.56 0 2.98.63 4 1.66 1.03 1.02 1.66 2.44 1.66 4z" fill="#b27946"/></g><g><path d="m30.03 6.24c-1.78.45-3.03 2.05-3.03 3.88v1.88l-.34-.34c-1.06-1.06-1.66-2.5-1.66-4 0-1.56.63-2.98 1.66-4 1.02-1.03 2.44-1.66 4-1.66h6.34c1.1 0 2 .9 2 2v1.76c0 1.37-.77 2.63-2 3.24l-1.26-.31c-1.79-.45-3.43-1.38-4.74-2.69z" fill="#b27946"/></g><g><path d="m61.38 14.6.6 13.27c-.2-2.1-1.7-3.85-3.73-4.37-.17-.05-.35-.08-.54-.11l-.87-.13c-1.13-.16-2.07-.94-2.43-2.02l-.24-.72c1.68-.81 2.83-2.52 2.83-4.51v-1.45c0-.92-.62-1.72-1.51-1.94l-1.38-.34c-.73-.19-1.43-.49-2.06-.91l-.39-.26c-.8-.54-1.71-.89-2.66-1.03v-.08-3c0-.2-.02-.4-.06-.6.84-.26 1.74-.4 2.67-.4h.78c4.82 0 8.78 3.79 8.99 8.6z" fill="#656d78"/></g><g><path d="m14 51.9c-.32.07-.66.1-1 .1h-1-1c-.34 0-.68-.03-1-.1-2.28-.46-4-2.48-4-4.9v-1c0-3.31 2.69-6 6-6s6 2.69 6 6v1c0 2.42-1.72 4.44-4 4.9z" fill="#656d78"/></g><g><path d="m34 51.9c-.32.07-.66.1-1 .1h-1-1c-.34 0-.68-.03-1-.1-2.28-.46-4-2.48-4-4.9v-1c0-3.31 2.69-6 6-6s6 2.69 6 6v1c0 2.42-1.72 4.44-4 4.9z" fill="#656d78"/></g><g><path d="m54 51.9c-.32.07-.66.1-1 .1h-1-1c-.34 0-.68-.03-1-.1-2.28-.46-4-2.48-4-4.9v-1c0-3.31 2.69-6 6-6s6 2.69 6 6v1c0 2.42-1.72 4.44-4 4.9z" fill="#656d78"/></g><g><path d="m9.83 22.51 2.17.49c.78 0 1.52-.18 2.17-.49l.83 2.49-3 4-3-4z" fill="#f0d0b4"/></g><g><path d="m17 18c0 1.98-1.15 3.7-2.83 4.51-.65.31-1.39.49-2.17.49l-2.17-.49-1.37-.97c-.9-.91-1.46-2.16-1.46-3.54v-1.36c0-.95.67-1.77 1.61-1.96l1.43-.29c1.14-.23 1.96-1.23 1.96-2.39 0 1.16.82 2.16 1.96 2.39l1.43.29c.94.19 1.61 1.01 1.61 1.96z" fill="#f0d0b4"/></g><g><path d="m58.25 23.5-2.75 5.5h-7l-2-4.01c1.51-.87 2.5-2.5 2.5-4.33v-.64c.84.62 1.87 1 3 1 .78 0 1.52-.18 2.17-.5l.24.72c.36 1.08 1.3 1.86 2.43 2.02l.87.13c.19.03.37.06.54.11z" fill="#f0d0b4"/></g><g><path d="m57 14.56v1.45c0 1.99-1.15 3.7-2.83 4.51-.65.32-1.39.5-2.17.5-1.13 0-2.16-.38-3-1v-9.94c.95.14 1.86.49 2.66 1.03l.39.26c.63.42 1.33.72 2.06.91l1.38.34c.89.22 1.51 1.02 1.51 1.94z" fill="#f0d0b4"/></g><g><path d="m49 7v3h-6v-3c0-1.66 1.34-3 3-3 .83 0 1.58.34 2.12.88.41.41.7.93.82 1.52.04.2.06.4.06.6z" fill="#f0d0b4"/></g><g><path d="m30.17 35.17c.53.53.83 1.25.83 2 0 .78-.32 1.49-.83 2s-1.22.83-2 .83c-.75 0-1.47-.3-2-.83l-2.17-2.17 4-4z" fill="#f0d0b4"/></g><g><path d="m29.83 16.51 2.17.49c.78 0 1.52-.18 2.17-.49l.83 2.49-3 3-3-3z" fill="#f0d0b4"/></g><g><path d="m37 12c0 1.98-1.15 3.7-2.83 4.51-.65.31-1.39.49-2.17.49l-2.17-.49-1.37-.97c-.9-.91-1.46-2.16-1.46-3.54v-1.88c0-1.83 1.25-3.43 3.03-3.88l.97-.24c1.31 1.31 2.95 2.24 4.74 2.69l1.26.31z" fill="#f0d0b4"/></g></g><g><path d="m39 39v-2h24v-8.664c0-.015-.004-.03-.004-.045h.003l-.615-13.739c-.24-5.356-4.628-9.552-9.99-9.552h-.788c-.689 0-1.366.096-2.035.235-.655-1.319-2.002-2.235-3.571-2.235-2.206 0-4 1.794-4 4v11h-6.279l-.347-1.042c1.583-1.081 2.626-2.9 2.626-4.958v-2.432c1.247-.854 2-2.261 2-3.804v-1.764c0-1.654-1.346-3-3-3h-6.343c-3.671 0-6.657 2.986-6.657 6.657 0 1.778.692 3.45 1.95 4.707l.072.072c.136 1.877 1.134 3.518 2.604 4.522l-.37 1.111-3.953.395c-3.26.326-5.786 2.824-6.227 5.981-.076-.014-.15-.037-.227-.048l-2.095-.299-.38-1.14c1.47-1.004 2.468-2.645 2.605-4.521l.072-.072c1.257-1.257 1.95-2.929 1.95-4.707-.001-3.672-2.987-6.658-6.658-6.658h-2.687c-3.67 0-6.656 2.986-6.656 6.657 0 1.778.692 3.45 1.95 4.707l.072.072c.137 1.877 1.134 3.517 2.605 4.521l-.38 1.14-2.095.299c-2.937.42-5.152 2.974-5.152 5.94v6.664h21.586l2.879 2.879c.499.499 1.116.83 1.784.996-1.38 1.279-2.249 3.1-2.249 5.125v1c0 2.042 1.027 3.846 2.589 4.93-2.473 1.088-4.467 3.06-5.589 5.515-1.123-2.455-3.119-4.424-5.593-5.511 1.564-1.084 2.593-2.89 2.593-4.934v-1c0-3.859-3.14-7-7-7s-7 3.141-7 7v1c0 2.042 1.027 3.846 2.589 4.93-3.874 1.704-6.589 5.574-6.589 10.07v1h62v-1c0-4.496-2.715-8.366-6.589-10.07 1.562-1.084 2.589-2.888 2.589-4.93v-1c0-3.859-3.14-7-7-7s-7 3.141-7 7v1c0 2.044 1.029 3.85 2.593 4.933-2.474 1.088-4.47 3.056-5.593 5.511-1.123-2.454-3.116-4.427-5.589-5.515 1.562-1.083 2.589-2.887 2.589-4.929v-1c0-1.958-.81-3.728-2.111-5h.111c1.103 0 2-.897 2-2zm13-18.984c-.714 0-1.394-.194-2-.547v-8.097c.39.149.764.34 1.109.57l.384.256c.727.485 1.526.838 2.374 1.05l1.375.344c.446.111.758.51.758.97v1.453c0 2.205-1.794 4-4 4.001zm-2.089 1.613c.662.247 1.362.386 2.087.387h.004c.542 0 1.064-.079 1.563-.215.536 1.315 1.707 2.248 3.128 2.451l.058.008-1.869 3.74h-5.764l-1.342-2.685c1.12-.914 1.892-2.221 2.135-3.686zm3.971 8.371-1.882 3.764-1.882-3.764zm-7.852-3.703 4.352 8.703h-7.382v-8.133l1.849-.264c.411-.059.803-.168 1.181-.306zm7.588 8.703 5.124-10.247c1.334.654 2.247 2.018 2.256 3.562l.002.045v6.64zm-1.224-28c4.29 0 7.8 3.357 7.992 7.643l.406 9.057c-.824-.677-1.831-1.144-2.943-1.303l-.872-.125c-.739-.106-1.343-.607-1.594-1.306 1.578-1.082 2.617-2.897 2.617-4.952v-1.453c0-1.379-.935-2.576-2.272-2.911l-1.375-.344c-.625-.156-1.214-.417-1.75-.774l-.384-.256c-.676-.449-1.431-.79-2.219-1.005v-2.089c.528-.108 1.062-.182 1.606-.182zm-6.394-2c1.103 0 2 .897 2 2v2h-4v-2c0-1.103.897-2 2-2zm-9.477 15-1.048 2.62-1.787-.894 1.726-1.726zm-10.345-11.136c-.105-.391-.178-.792-.178-1.207 0-2.568 2.089-4.657 4.657-4.657h6.343c.551 0 1 .449 1 1v1.764c0 .888-.456 1.678-1.182 2.159l-.831-.208c-1.619-.404-3.099-1.242-4.279-2.423l-.4-.4-1.519.38c-1.809.452-3.159 1.855-3.611 3.592zm1.822 1.259c0-1.379.935-2.576 2.272-2.91l.438-.109c1.362 1.229 3.007 2.107 4.792 2.553l.498.124v2.219c0 2.206-1.794 4-4 4s-4-1.794-4-4zm4 7.877c.534 0 1.05-.077 1.543-.208l.313.939-1.856 1.855-1.856-1.856.313-.938c.493.131 1.009.208 1.543.208zm-3.372 2.042 1.684 1.684-1.787.894-.988-2.468zm-8.628 5.388c0-2.579 1.936-4.718 4.502-4.975l.963-.096 2.009 5.022 4.526-2.263 4.525 2.262 2.152-5.38h5.323v-9h4v9.664c0 1.978-1.477 3.68-3.435 3.96l-3.565.509v9.867h-2v-6c0-1.103-.897-2-2-2h-8c-1.103 0-2 .897-2 2v1.586l-2.293-2.293-1.414 1.414 3.293 3.293-2.586 2.586-3.414-3.414c-.378-.378-.586-.88-.586-1.415zm-13.683-10.106c-.202-.526-.317-1.087-.317-1.667 0-2.568 2.089-4.657 4.657-4.657h2.687c2.567 0 4.656 2.089 4.656 4.657 0 .58-.115 1.141-.317 1.667-.402-.816-1.158-1.439-2.095-1.626l-1.431-.286c-.67-.135-1.157-.728-1.157-1.412v-1h-2v1c0 .684-.487 1.277-1.157 1.412l-1.431.286c-.937.187-1.693.809-2.095 1.626zm1.683 1.316c0-.475.338-.888.804-.981l1.431-.286c.688-.138 1.296-.478 1.765-.952.469.474 1.076.814 1.765.952l1.431.286c.466.093.804.506.804.981v1.358c0 2.206-1.794 4.001-4 4.002-2.206-.001-4-1.796-4-4.002zm3.998 7.36h.004c.533 0 1.048-.077 1.541-.209l.343 1.028-1.886 2.514-1.886-2.514.343-1.028c.493.132 1.008.209 1.541.209zm-8.998 6.336c0-1.978 1.477-3.68 3.435-3.96l2.121-.303 2.444 3.26v5.667h-8zm10 4.664v-5.667l2.445-3.26 2.121.303c.147.021.291.055.434.092v4.289c0 1.068.416 2.073 1.172 2.829l1.414 1.414zm12.414 2 2.586-2.586 1.465 1.465c.34.341.535.811.535 1.293 0 1.008-.82 1.828-1.829 1.828-.488 0-.948-.19-1.293-.535zm-18.414 9c0-2.757 2.243-5 5-5s5 2.243 5 5v1c0 1.474-.81 2.75-2 3.444v-3.444h-2v4h-2v-4h-2v3.444c-1.19-.694-2-1.97-2-3.444zm-3.945 15c.499-4.494 4.32-8 8.945-8s8.446 3.506 8.945 8zm43.945-15c0-2.757 2.243-5 5-5s5 2.243 5 5v1c0 1.474-.81 2.75-2 3.444v-3.444h-2v4h-2v-4h-2v3.444c-1.19-.694-2-1.97-2-3.444zm5 7c4.625 0 8.446 3.506 8.945 8h-17.89c.499-4.494 4.32-8 8.945-8zm-11.059 8h-17.882c.5-4.493 4.317-8 8.941-8s8.442 3.507 8.941 8zm-3.941-15v1c0 1.474-.81 2.75-2 3.444v-3.444h-2v4h-2v-4h-2v3.444c-1.19-.694-2-1.97-2-3.444v-1c0-2.757 2.243-5 5-5s5 2.243 5 5zm-5.486-7c.3-.546.486-1.163.486-1.828 0-.058-.014-.114-.017-.172h3.017v-2h-3.681c-.131-.188-.275-.37-.44-.535l-1.879-1.879v-3.586h8v10z"/><path d="m31 31h4v2h-4z"/></g></g></svg>