<?xml version="1.0" encoding="UTF-8"?>
<!DOCTYPE svg PUBLIC "-//W3C//DTD SVG 1.0//EN" "http://www.w3.org/TR/2001/REC-SVG-20010904/DTD/svg10.dtd">
<!-- Creator: CorelDRAW 2019 (64-Bit) -->
<svg xmlns="http://www.w3.org/2000/svg" xml:space="preserve" width="16px" height="16px" version="1.0" style="shape-rendering:geometricPrecision; text-rendering:geometricPrecision; image-rendering:optimizeQuality; fill-rule:evenodd; clip-rule:evenodd"
viewBox="0 0 16 16"
 xmlns:xlink="http://www.w3.org/1999/xlink">
 <defs>
  <style type="text/css">
   <![CDATA[
    .fil0 {fill:black}
   ]]>
  </style>
 </defs>
 <g id="Capa_x0020_1">
  <metadata id="CorelCorpID_0Corel-Layer"/>
  <path class="fil0" d="M5.35 2.78l1.79 0 0 1.07 1.78 0 0 -2.92 -8.92 0 0 2.92 1.78 0 0 -1.07 1.79 0 0 10.69 -1.79 0 0 1.61 5.36 0 0 -1.61 -1.79 0 0 -10.69zm6.71 7.94l0 1.42 3.94 0 0 -1.42 -3.94 0 0 0zm-5.88 -4.27l0 2.74 1.78 0 0 -1.06 0.9 0 0 5.34 -0.9 0 0 1.61 3.57 0 0 -1.61 -0.89 0 0 -5.34 0.89 0 0 1.06 1.79 0 0 -2.74 -7.14 0z"/>
 </g>
</svg>
